<mxfile host="app.diagrams.net" modified="2024-02-01T12:17:55.605Z" agent="Mozilla/5.0 (Windows NT 10.0; Win64; x64) AppleWebKit/537.36 (KHTML, like Gecko) Chrome/120.0.0.0 Safari/537.36" etag="HnUDgel74tKpBXzodzhX" version="23.1.0" type="device">
  <diagram name="Page-1" id="tL-DbwjRgUeN43VfjUMQ">
    <mxGraphModel dx="1447" dy="738" grid="1" gridSize="10" guides="1" tooltips="1" connect="1" arrows="1" fold="1" page="1" pageScale="1" pageWidth="827" pageHeight="1169" math="0" shadow="0">
      <root>
        <mxCell id="0" />
        <mxCell id="1" parent="0" />
        <mxCell id="UZ6RkZTlEQQABrXdxuR9-14" value="" style="group" vertex="1" connectable="0" parent="1">
          <mxGeometry x="174" y="720" width="380" height="130" as="geometry" />
        </mxCell>
        <mxCell id="UZ6RkZTlEQQABrXdxuR9-2" value="" style="rounded=1;whiteSpace=wrap;html=1;dashed=1;" vertex="1" parent="UZ6RkZTlEQQABrXdxuR9-14">
          <mxGeometry width="380" height="130" as="geometry" />
        </mxCell>
        <mxCell id="UZ6RkZTlEQQABrXdxuR9-1" value="" style="shape=image;imageAspect=0;aspect=fixed;verticalLabelPosition=bottom;verticalAlign=top;image=data:image/png,iVBORw0KGgoAAAANSUhEUgAAAggAAAG7CAIAAAApKPpyAAAAAXNSR0IArs4c6QAAAARnQU1BAACxjwv8YQUAAAAJcEhZcwAAEE0AABBNAWeMAeAAAHAuSURBVHhe7b0HeBPXtr/93ZPyPycnJ8lNCISQAtxUSGjGxmCqsem9JECABIJtMKY3Y7CpoffQO6GGXkPH9N4NmGKQe+/dsqX1/UaacJAAe0YaGVla77Oe+9xDrCl79qx3ryl7/j9iGIZhmGdgMTAMwzAGsBgYhmEYA1gMDMMwjAEsBoZhGMYAFgPDMAxjAIuBYRiGMYDFwDAMwxjAYmAYhmEMYDEwDMMwBrAYGIZhGANYDAzDMIwBLAaGYRjGABYDwzAMYwCLgWEYhjGAxcAwDMMYwGJgGIZhDGAxMAzDMAawGBiGYRgDWAwMwzCMASwGhmEYxgAWA8MwDGMAi4FhGIYxgMXAMAzDGMBiYBiGYQxgMTAMwzAGsBjsGo2G8tSUlkUxKRSeQE9i6X403Y2k66F0MYROBYsReI+O3KaDN43j0C06GkSBd+l0MJ17QJdC6OoTuhFG9yLpYTSFxlNsKiVmUGYuFWhIK67TbshXU1Y6JaMVoihSRWEP6fF9ehhE927Q7ct08wLdPE9Xz9ClQLp4QogbJ+jJcUo6Rhl/R9ZpyjpHWecp+wrlXKOcm5R7j/JCSB1K+dFUkEyadNLmiatjGOVgMdgLWq2QnfPyKTtPyNRp2ZScSTGpFBJDl0No71XaeIaWH6dZ+2jCDhq2kXovp3bzqO1cIVrOpjqTyHG8cdSaQA1+o2Yzqf086raQ+iwnn7U0chNN2U3zDtLak3TguiCV2+EUlUzJGcJKM3KFDchRC1uC7bEF0LKaAlLnUV4u5WRRVgZlpFF6CsVG0P1bdOEoHd5BO1bRhvm0agYtnkgzR9D4vuTXi3x70tAfqW8L8mwuxOgmtKEB3XCkJzV04UBhzSm8A0X8SFFeFOVDMSMoYQolLqbktZS2izLPCLbIU+kMkUaaDNJkkTaXtPkwPjZL3DyGkQ+LwWbRIF9pKL9ASMG5akrJpMdxdDaYdl+hlSdo2l4avpE8V9HPy6jbYuq0QEjubWZTi5nUdAY1nkb1f6PaE8VwnkgO46hGwAui5jhBD/ibupOFnzSaSm7TqNkMajlLMErnBfTjQuq+lPqspMHrafIuWnqMtl6kv24INgpNECSBzVMXCJLABpcMBBNoqKBAqAkgg8x0igqlO1eEUf/BP2njQl32H0lTBtFEbwrwEBwwqgcN7yZoYEhnGtiB+rehfq2pbyvyakF9mogxqjGtd6Eb1enJd2KoHEjlSCpnCq1LofUotCGFuVNYCwpvTRE6YUR2o6hfKHogxU+mxN8pdQtlnqKcIFJHC54QJKEmbQFp2ROMPFgMtkm+huLS6EE0XXhEe67S2lO04BBN2knD1pPHCuqykFrMonqThVG/UaK3UDiOE2oOKAeq6LWMvFcLhcVvu2nJUdp2SbgYFRRO0cmCJKydgnxKT6UoFd27TheO0cGtQjWwdi4tmkCzfWmCN43qTj7tyaPZfzO+xHheDBJDVZPCmlB4e4r8hWKGUtx4ip9FySspdSdlHKec26SO0goXnQrEXWCYomAx2AgYxSKrJmVQRCIFRwk+2H6JFh2lsVupxxJyn0a1Jxgna2sIlBo/LKAh62nmftp0nk7eoxuh9CiG4lIpK1fQm1UMdFEZZKRRfBSFPqQ7V+ncEdqzXrguNH2oUAf0bWmc4k0Lk8XwwkCRgZIiegAlzNambtFmHqWcG5T3SHdzApKwfgMzrxIWQwkGMsgvoMwcwQeRSXQnnPZfE67V+G2hnxZRq9nUZDo1miLeHnjZtaBXG9gquKHBb8IFqOYzhatPfVYKV5y2XqALDykklhLShR2E84r7QpOmgHJzKDONkhMEH1wKpD3raMkkmtSfRvWkYV1oUEfhipBXC/JoapziTQtlxfCkmu4yVB0Kc6WwZhTRjqL7CVecUtYJl5vyQig/Qbgzoc1BESTuMsP8DYuhBAMrxKYKTw2tPUXjd5DHSuq6kNrMIdepwnV/6zRBkeEykZrorjj9soxGbxZuh5wJFh5wyswVRFh8pKdQyD06/Rdt+F24RjTRm3x/FmTw7F0BZUNhMRhFFd29CjfxilOsLyUuoLQ9wmNOmnRxlxnmb1gMJY/cfIpMFp4N3X2VFh+lERuF+gAjbofnkmxJjwZThNsh2MEZ+2jdaTp+R3gQNjXLMobAQnOzKSGGHgXR2UO0ex2tnkkzhwsXi7wUulhUeFhWDM/G96RyofC2wsNO8VMoZT1lnqTch8LTTVq12BqMfcNiKBkgE+blC9dVQmLp4kPafJ7GbBXqA7ep5DzBeq8UmRnYKf1DsbUnChea+q2m+QfpWJDwskVEEmXkKPTAa0G+8GRRTLjwZNGxXfTHPBrnSQPaCzcPvJordqWoyCg+MSCq0JOq9KQ6qZworClFeVPSEko/LNypztc90cTXl+wbFoO1AyVoMJZVCw/t7LlKozZT6znCU6F1JpGTjfrghVFznKDA+r9R23nC2xLzD9ENlVA9aDRmFBDCU6f5lJokvHG28Xea0I8GddLdOWhunLWLIYpVDM9GFeG52NDawhOxgiFWUs51KkjVPcVUnBfvGCuCxWCl6H2gzheeOr0cQhvO0Lht9MtS4YlPwQfP5U07Cew49NB4KnWYL+hh3iHh7WsUEOk5cgyBv8tXC3eVb12kvRto+TThpbPRPcm7DfUprvrg+XhlYngmQhtSxA8UM4jip1PqLsq9T5pc9EQ2hL3BYrBS0rLpYQyduEN/nKHx26n7YuG1A4yajRKlPQck0WoWDfxDeMt6/3W6E0FJmUU9vAQl5OVSXBQFXaHD22nZFBrTW/e86avzwdOwBjGIUZVCG1CUh3CDOv0I5QQLtx8Ye4LFYF0gr2XmCs+enr5PC49Q7xXkPl24wm5XV42kh/76UsMp9NNimr6XDt+mJ3HCVB95+c8NcbUa4d5yYhw9ukNHttPvATTiJ/JuLcxFYZSgX1VYkRgQVUhVg0LrU0RnSpgtvCinDqeCFL47bSewGKwFjGXVBcIbCRdDaMoe4fXg5jOp7iSuEooOKBPubDJd0EPANtp7TZj8Iyfv75n79BeOMtKEmYv2/EFzfIU5KgZ0sCIl6MO6xKCPqrrbD00osoc2bhylHRDm7xOnY+KLS7YMi8EqQKGQmkWXH9OqkzRkgzDRUJ2JxumPo8ioNYGaTqc+K2jmPmE6WBRewhwb6anC9BV71wuzVgR4kE87U+arKIawRjH8HagewhpTlCfFT6O0nZQbrHszjrFZWAyvGAxnE9PpVqgwt93EncKLXYXMWMdRZKDpnMYLxdbw9dqtx9OeXHpQEHiAVs+iMb2oXxudEqzgdsILw5rFIMT3wpyvoQ0pso9w7yHjCOWhesjj0sEmYTG8MlAlYDybliXcYQ7YJlQJziX2dWWripoB2toB6hZjk4eMvnp8xJzMQT9pre2q0QvD2sXwNKoIk22EtRRm/1aH6b4JwVeWbA0WwysAVUKBRviCzcUQmr5PmPi6yXS2ggLhEKB1CihoOjZl4KhrWwYvu9V/eHLfrgWexfLesvlRYsSA+F6Y0jW8jTCZa8oG3bwaaTx7qy3BYihuYIWsXGEC1K0XyXezrlDg2wkKRX3/rF9GP5g7fPfxgVMj+vbO82htnHytOUqSGP4OlQtF9qKEmcJb08KVJdv49BLDYihe9NNaXAoRJsT+ZalwNdwotXGYECgUagXktxyTOHjU9Q1DVj7w9s7zaKm12nsJL4uSKAaEqhqFNqbowZSyWZjWuwClA8/pXeJhMRQTGq0wt8+jWNp1VXjuqPVscplkvy8wKxiOAQWuYzO6+IXNGrH/nE9AvNdPuR6tS54VECVUDMJlJbjBhSK6CqVD5knKjxQeaRXel2ZKKiyG4kCjoWw1nbkvfI6my0Jh0tBi+3SazYfb2PSRo87tHrzgoXf/dM+O2j5W+SiqlCipYvg7hA/JNRU+DZS8jnIfaTXZYu9nSiAsBouTkycUCn9eJL8/qd1c47zGYVoIkyYF5HcaEzVhxPFjA6fEenXP79Pceh9FlRIlXQz6EO469KSEeZR9gSfSKLmwGCxIgUb4BP+tMFodSB3mCTOD8mvMikTNAE09/+yf/R7NH7bzQv8xaZ6dS3Ch8DRsQwzChN7VKcyN4idRxjFhEm/hshI/zFrCYDFYCpwKadkUeI/GbafWs3SfTHguwXGYEA4BWlihq9/jgwNmxHh1z/NoVSLvKDwfNiIGfVSh0DoU2ZWSlmnVYTzDUomDxWARNFqKSRE+nzB0gzADqLNVfoi/xAXMWss/v5Nf5KQRR48OmhbTt2d+H4t9aLP4w6bEgKhCqtoU0V2buIBygnQfEOW6ocTAYlAYrZay84QvUG46SwPWUsPfjLMbh8lRx1/dbbRq3rDdF3zGZHq209jA5aNnw9bEoAuVI4W3o4RZlHmK8mP4SdaSAotBSfTPpN4Opzl/Ucf5ugdS+aaCEoFaob5/bg+/J8uHbrrnPaikPpBaeNikGIQZlqoJHxCNGUZpe7XCLQd2QwmAxaAYqBVghZthwk2F9nN5igvFwiFA6+Kf18c3ePOQpSH9+uZ4tDFOqbYRtimGvyO0PkV5Udp2rfCWA0+eYe2wGJQBtUJaNp29L1ihxSxh/mej7MZhWtQM0NQJyPMbde7AwDnhJW6WC1lh22JAhLoIE3enrKfch1w3WDksBgXILxCm/j9+hybsILep5MiFgkLhFFDQakzi6FHnAwf+luzVRSO8qfBcPrWZsHkxCO9IOwtzKyUtp5xbpMnh29FWC4vBXAo0FJ9Oe66Q92qqz59lVi5qBmibjE0ZPfLMvX4+mR7tS/bLa1LC9sWgjyoU1oziJlLeE3aD1cJiMAtYISKRdl0hj5XCl4e5VlAqavkXwAqTRh675OMHK9jaA0gvDHsRw3fC50LD21DsOMq+ym6wTlgMZhGeSNsuktdKasCPpSoXjgEFLcckTBl+6JzPuDTPTjb4ANILw37EgFDVpFB3ip9OWRd1r7+xG6wLFoOJqPOFT3LuuCxcQTLKaxzmRK2AguZjkvxHnrzs45vp0c5erICwKzHoI6wFxU+h3Dv8+pu1wWIwBXUBhSUIX2n2WkX1JhunNg6Tw8m/oNWYBFjhos+YVM/OdnEF6WnYoRhUNYRrSnHjddeU2A1WBIvBFCKThCtI3RYL8+IZpTYOk6NmgKbx2LTJI49c8Rmls4JNP4P0fNihGBBwQ1hzipssuEGbx26wElgM8ijQCO8r7LtGPmv4ASQlA1Zw9U+fNOLYuQHjsjza2letoA/7FIMQcEMbSphD2Td0bmBePSwGGWi0lJpF5x+S7xaqO8k4tXGYE+7+aUNGXb3o45fu0dGO7is8G/YrBt296PAOlDCf8h6zG6wBFoMMctTCPEhD1lOjKTzdhZJRM0A7wPfWZZ/RacIn2OzSCgh7FoN+SqWIH4R33/Jj+ILSK4fFIJWMXLr6hH7bTc1nCe8r8McVFAk0Y21/dR/f+5uHrEzy6lpgb/cVng27FoMuQl0o8hdK20bqMHbDq4XFUDRarfBwKqwwcz+1mk1O/Llm5aKOv7rH6Merhqx/4N2/wJY+rmBCsBgQKmeK9qb0vVQQz/MpvUJYDEWj1k2FNPcgNZ/Js+MpGc7++R3GxC4Z+mew9wC1R0vjRGlvwWIQ4nvhOaVYX8oMJE0KkUY8CZnihcVQBBotxafR9ovksYJq8ec5lYuaAZpWYxLGjzwW5D3MZmfSlhUshqcR1pTi/CnnJmkyxfOQKV5YDEUQm0p/3aD+a8h1mnFq4zAnGvhnDR918eyAcWlenYxTpH0Gi+G/UZ3CW1PiXMp7RMQfb3gFsBheivCRTjWdfUAjNwkT5HGtoFQ4BGidAvJ9fG/uGvI7rGCPryy8MFgMz4aqJkX8SClbhBvR/GGfYofF8FLy8kkVT4uO8qQXCketAHXTsck7By9M8vzBfh9OfT5YDEahqkURPSl1J2nS+CGlYobF8GLydbMhLT9OXReRIz+GpFygXGg9Jn7msL13vIfk2/ljSEbBYjCOqqSqQ3FjKes8aXLZDcUJi+HFpGYJtxb6reEP+iscTcekjB559kp/31SvzsaZ0c6DxfDCCG9DCTOFN6I12eLJyVgeFoMxGJbk5NGdcBq/nZrNMM5rHCYHaoVaAfl9fW/vGLQgx6OtcVrkYDG8LCI6UOoWUofz06vFBovBmPwCehhNq05Qx3nkxG8tKBfO/vmtx8QtGrYtpK+XXb/h/LJgMbwshDeiu1PGESpIF89SxsKwGIxJyRQmT+21jO85KxyuYzP9RwaeGTAu07O91ignciBYDC+NKsKN6PgZlH2d7zQUDywGA7RauvKYJu8SPtXJ95wVjHr+OR6+9/YNmhPr1d3uPrQgMVgMhUfEj5S8kvITeKqMYoDF8F/0X+tceoy6LBTeWuAXF5QKx4CCDn5Ri4duUfXz5LcWXhoshsJDVYOi+1HmCSpI4rrB0rAY/ktCGh2+Rb2X8zR5Sgb82nBs5tBRl671H5nt0c44G3I8DRZDEfE9hTakmKGUc5e0avGkZSwDi0EkO48uP6YRm6jpdOPUxmFOOAZovEbf2TZ4MV9EKiJYDEWGqjqFt9W9Dh3BRYNFYTEIoIuFJtC6M9RkBjnzk0jKRc0AbaOxGXOH7Qnp55Xr0co4FXI8GywGKaGqTbGjtFlnScuvvFkQFoPucwsFdPwODd0g3HDmWwsKRh3/PC/foMMDZxT0ac6zXxQRLAZJUZXCWgp3ofN4DiULwmIQXlyIS6PfDwvlglFe4zAnUC40G5u0c9CimL4/GydBjueDxSAxVLUoyoPStpMmg4sGC8FioPQcoVwY+Ad/hEfhcBuTNnjU5Tveg/gjPJKCxSA1qlBoA4obL0zKrc0TT2NGUexdDOp8ehRL0/ZQmzlUk+dEUjS6+z3ZOHh5nNdPxhmQ44XBYpAR3+u+Dr2XCpLFM5lRFHsXQ2I6HbhBnX9nKygZDgHk5J8/etQFVV+PvD58z1lasBhkRZg7xY6h3BCeQMkS2LUYNBq6rqJhG6nBFOPUxmFO1PLP7zr6yZqh69I9O/I9Z6nBYpAXDhTRkTIO6953YxTGfsWg1VJsCm0+T63nkCOXC4pGXf/cSSOOXu0/Mr8P312QHCwGuRFaj+KnU84t8ZRmlMN+xYBy4ex9Gr2FJ8tTOGoFFLT1i902eGmKRycuF2QEi0FuCJ///IHSduk+1cAXlJTETsWAciEnj1YGCveceQIMZcN1bObYkScv9/fjD7TJCxaD7KhCKkdh1tXc+7r33RjFsFMx5OXTkzgK2C48ospvtCkb7cbE7xq0IM7rJy4X5AWLwbSI7C18xqcgRTy3GSWwUzEkZ9KOy8JHF4ySGoc54aCbAGPoqKtB3kP5YSTZwWIwLUJdKdaP8h7wOw0KYo9i0GhIFS/cXeBXnZWNmgGan0Y/+WPIqlivHsZZj6PIYDGYGFWETzWk76OCRPEMZ8zGHsWQpZtIteMCfndB4XAKKBg98tyjvl65Hq2Nsx5HkcFiMDlCG1HcOOFOA6MQ9iiGRzG0+Ci58fTaSkfrMfGLh25L8+zEX+MxJVgMpocDRXSjzOOkSefZkxTBvsSg1Qq3nY/foT4rqM5E47zGYWb0H3Vj/6DZPDOSicFiMCdCG1PyalKr+MOfimBfYijQUHwarTkpfNKZH0ZSMBwCtE4B+fOG7brXb0ABf43HtGAxmBOqusIMGZlnSJsjnu2MGdiXGHLVdCuUpuym2lwuKBrO/upmY5MODpqd7dmWn1I1MVgM5oSqOoW1ouQ1/EVoRbAvMaRn0/aL9OsKfqlN4Wg0NsNr1K0rPn7GyY5DerAYzIrvhTsNcZN1L7vxB3zMxY7EoNFQZLIww7b7dH4eSeFoNyZm2dD1j/t5GSc7DunBYjA/orwp/SBfTTIfOxJDdh5deUw+a8mBraBo1AzQ9hkdHNyvf5ZHO+NkxyE9WAzmR1hrSphDBWniOc+Yih2JQbjtfIp++N04r3GYGY3GZowdeTrJsws/pWpWsBjMD5UjRQ8kdRQRP5tkFnYkhrAE8t8mXEcyymscZkb30Y/XDVmd7dHWONNxyAoWgyIR0ZUyT/NHGszEXsSQly88j/TrCnLm55GUDt+RFy7291PzpxfMDBaDIhHeihIXUl6IeOYzJmEXYhC+yZNKu65S+3l8g0HJ0L2+UDBjxF+hffvwdSRzg8WgSIQ2oCgfyr7CD62ag12IoUBDQRE0cz/PmqdwwApNxyatGbo+zbOTcZrjkBssBkVCVUOYOin9MGnV4vnPyMcuxJCvoZPB1H+N8MKzUWrjMCdc/HN7jQ7eN2hurkcb4zTHITdYDApG8jpSx3DRYDJ2IYbsPOHrC23n8A0GhcN1bMa4Eccv+IxRe/DXF8wOFoOCEf8bZV/n732ajO2LAWOG+DRacpQcx/P8SApH87HJfwxZE9r31wIPnh/J7GAxKBjRAynjIIvBZGxfDBot3Q6jSTuNkxqHmeEYoOk8JjJw0JQsz3Y8P5ICwWJQMMLbUPIKnmnVZGxfDAUaOniTBqw1zmscZoaLf66Xb9Dt/sONExyHacFiUDBUtSh+EhWkIgGIiYCRg+2LIb+AVpzgF56Vj6ZjUiYOP/LIu79xguMwLVgMSkZVihlKuQ9Imy0mAkYOti+G3Hyaops4zyivcZgZHfxiVg75I6rvL8YJjsO0YDEoGVUoqg9lHKOCZDERMHKwcTHk5VN0Mg3dwM8jKR/d/EL3D5yd5NXFOMFxmBYsBiXje4roQinrKT9WzAWMHGxcDGnZdEMlzIRhlNQ4zI8+ox9c7e/LUyQpFiwGJeN7CmtJ8dNJHSbmAkYONi6GhDQ6GkTdlxgnNQ4zwzFAM8T3RmS/3lqj7MZhcrAYlI3QOhTVV7jNwMjHxsUQmkDLj1OHecZ5jcOccAjQNhuTNG3Ewbi+3Y2zG4fJwWJQOKpRRGfKucEPrZqAjYshOFqYarvZTOPUxmFOQAzd/J6sHLKObzAoGSwGxSOsBWUcIU2KmA4Yydi4GG7optpuOMU4tXGYEzUDtP1G3d41aH6qZ2fj7MZhcrAYFI8wd0rZROpInjRJLrYshgINnX1ALWaR8wTj1MZhTjgGaIaPunTCZ1KGZwfj7MZhcrAYFI9QV0paSnmPWAxysVkxoCOkZdPea+Qyib/BoHBADBNHHLvlPYQfSVIyWAyKR2h9ip9CObdYDHKxXTFoKS6VNp0jRy4XlA6IYcGIPdFePdQe/NU25YLFoHionIX3n7POsxjkYstiCE2glYHkNN44r3GYGc7++WuGbcrxbKvlr7YpGCwG5cOBIntSxlGeZlUuNisG/aSqM/dRTRaDouEQoK3vn7l56CqeUVXhYDEoH1UpvDWl72MxyMWWxXDxIQVsYzEoHLX88zv4RewdvMA4r3GYGSwG5aMKhTUSHkwqyOCrSbKwZTGcuEtD15Mj33lWNGr75/XyvXdk0HTjvMZhZrAYLBGhLpS8kvLjuWiQhc2KoUBDB26S1yp+JEnhcPHP9R51/eSAycZ5jcPMYDFYIkLrUNIiUkeQlj/MIANbFsPuq/TLMhaDwlHPP3vUyNMXfMYa5zUOM4PFYIlQOQtPrGbfJm2emBoYCdiyGDafp04LWAwKRwP/rAkjjlzrP8o4r3GYGSwGS4SqFsUGUPYl0uaKqYGRgC2LYdVJajrDOK9xmBkNx2bMGrY7qP8Q47zGYWawGCwRghhGU9YZ0uaIqYGRgM2KIV9DC48Irz0b5TUOM6Px2PTlQzc86tfXOK9xmBksBkuEyolihgmfcuNvfMrBdsVQQL8fpjr84Talw31s6pbBSyL4i56KB4vBEqGqSdH9KH0vabPE1MBIwDbFoNFSWg7N/otqsxiUjiZjU3YM/j3aq4dxXuMwM1gMlgiIIcqT0nayGGRhm2JAuRCbRtP2shiUD4hh96D5sV78iR6lg8VgiVA5UFRvSttGGhaDDGxWDNEpNGUPi0H5aDo2+eDAmUmePxrnNQ4zg8VgiYAYInpQykatJlPMDowEbFMMufn0KJbG7SBnFoPS0Wxs0okBk9M8OhrnNQ4zg8VgiVDVoIgfKXmtVpMhZgdGArYphhw13Y2ksdv4Ez3KR/OxSad8JmZ4tDfOaxxmBovBEqGqTuGdKWk1sRjkwGLgkBcsBksFi8ESwWIwCRYDh7xgMVgqWAyWCBaDSbAYOOQFi8FSwWKwRLAYTILFwCEvWAyWitGNaUsdusliUDRYDCbBYuCQFywGi4RHExrrSrtq0e1qxqmNw5xgMZgEi4FDXrAYLBIsBgsFi8EkbFMMuWrhPYbxO/gFN+WDxWCRYDFYKFgMJmGbYlDnU3giTdrNYlA+WAwWCRaDheLvF9xYDLKwTTEIcyWl0lSeK8kCwWKwSEAM/q60uxYFVTVObRzmhMqBIntQyibiKTHkYLNiiONJ9CwTLAaLBMQw3pUOOdLdKsapjcOcECbR+5XStvMkerKwTTFotJSezdNuWyRYDBYJvRiOOtI9FoOiIUy73Y/S9/CHemRhm2IA+RpadJTqTjbOaxxmBovBIgExTHSlwJoUzGJQNFSOFD2QMg6xGGRhy2JYfoIaTzPOaxxmBovBIgExTGlEF2rQw++NUxuHOSF82nM4ZZ7gbz7LwmbFUKChNaeoxSyq+Vxq4zAnWAwWCYhhaiO64kAhLAZFQ1WLYgMo6xJpc8XUwEjAlsWw+Tx1XkAO44xTG4c5wWKwSHg2oZmNhPkwHrMYFA1VbYqfRjl3SZsnpgZGArYshr3XqPdyFoPCwWKwSPR3pwUN6A6/xKB0hNahxPmUpyJtvpgaGAnYrBg0GjpymwasI0cWg6LBYrBEaAe707J6dJdfYlA6IIakJaSOIm2BmBoYCdiuGLR07gGN2cJiUDhYDBaJ4Y1plQvdYzEoHaF1KWUdFaQSacXUwEjAlsVwXUVTdlPN8capjcOcYDFYJMY0po11+FlVpeN7CnWl1K26O88sBhnYrBi0WnoYTQsPkyOLQdFgMVgkJjei3c50n8WgbFSj8HaUvp+0GjEvMNKwZTHEpNDGc+TEYlA0WAwWiZkNhfkwHvAjSYqGypGivCgzkIjFIA+bFQNIz6F916gWf5JB0WAxWCR+r0+n+e02pUPlQrFjKfsKX0eSiy2LIb+AAu9Swyl8NUnJYDFYJFbVo2vVKOS51MZhToTWp4RZlHOHxSAXWxYDuPyYOi0gF54xSblgMSgfHk1ocz26X5UeP5faOMyJUFdKWq7Ne8xikIuNiyEonAb9QW48Y5JywWJQODyb0EA32lmH33lWPsKaUOoOyo9lMcjFxsXwKJZm7KXWs42zG4fJwWJQOPq50xhXOuBsnNQ4zI+wFpR5kr/dZgI2LobIRNpwRpgxySi7cZgcLAaFw8edpjegY07GSY3D3KhB4T9Szk0ingxDNjYuhsR04f5zzyXG2Y3D5GAxKByD3GhpPTrr+Fxe4zAnvqfQRhQzjPIe8XUkE7BxMWSrKTSe+q42zm4cJgeLQeEY5kZba9O16s+lNg5z4nsKby08kqQOF3MBIwcbF4Pwjc8crd9W/pSbYsFiUDh8G9PxmvxFT6WjCkX2EO48F8SLuYCRg42LAagLaP4hajPHOMFxmBYsBiXDswmNb0xXq/ODqkpHFYr2oexrpEkXEwEjB9sXQ4GGtl6k3suMExyHacFiUDIGutPcBnSTP8OgeFSh2JGkjuTv85iG7YtBo6EzwTRyk3GC4zAtWAxKhm9jWuNCQTzbttIR6k6J80iTydPnmYbti0GrpUcxwtsMRgmOw7RgMSgZ412FSVX5MwyKR2RPSt1CxB/nMRHbFwNIzabVJ6n2RP7MpwLBYlAsPHSTqp6qSQ/4zrPSEetLmad4UlWTsQsx5OXT/hvUdRG5TDJOcxxyg8WgTMAKPm60rD7d4imSFI/vKXERv8FgDnYhhgINXQ6hsX9S46nGaY5DbrAYlAmvJjTalTa58FfblI4qpKpFabv4eSRzsAsxaLQUliDMjdFqlnGa45AbLAZlwtudpjekv5z44zwKh6o2RfxAmWe5XDAHuxADyFXTlSfUZSHV5NsM5gWLQZkY4E4r69KFGvSIKwZFI6wpxU+k3Dvimc+YhL2IAUVDSCyN2ESNphhnOg5ZwWJQIDya0PDGtLu28JFnvsGgbER0pLRtwhsMjBnYixhAbAotOkLt5xpnOg5ZwWJQIPo2oUkNeUZV5UPlSNHelBskvMHAmIEdiSE1mw7epF7LjTMdh6xgMSgQg9xpWT264GCc1zjMjFB3ivuNCtLEc54xFTsSg7qAHsbQiM3kxJ+ANiNYDOaGRxMa6Sa813ab32tTOiK7Uco6/jKP+diRGLRECek07yC1mMW3oE0PFoO50c+dJjSiMzXpET+PpHTEDKWsMzw/kvnYkRhAZi4dukWD/6BaE4zzHYfEYDGYG8PdaEk9us4fYFA2qpDKmRJmkzqMX3g2H/sSg7qAwhJp8VGqN5kcnkt5HFKCxWBWeDShSY1orzPd4etIioaqJkV0pdTtfNtZEexLDCBfQ3uuUdMZfDXJxGAxmBUQw+8NtNeq0UO+jqRohDYQyoWc26RVi6c6YwZ2JwZw5TGN2Ej1+ZtuJgWLwfSAFUY3pi11hLed+fUFJaMqhbcRvteWH8szqiqCPYohMok2n6dWc7hoMCVYDKaHVxOaX5+O83f/lY7Q2hTdj7IukCaHZ8JQBHsUQ24+BUWQ5yqq+5tx1uMoMlgMJgbKhf7uQrlwnb/XpnSENaekhaQOZSsohT2KQaulmBRaeJg6LTDOehxFBovBxPB2p7GuwtvOD3lyJGWjKkX1pKxz/PqCgtijGEBmDl14RIPWGWc9jiKDxWBiDHejZXXpco3n8hqHeRHekhKmkzqCtHx3QTHsVAwFGkrMoLl/kds0vtMgL1gMpoRnE5rgSoed6A6XC0pHzBDKPMblgrLYqRgA3HDwJvVfy591kxcsBtnh0YQGuNHC+nSXP9ambHxPKgdKWkz5CaTNF09sRgnsVwxaotAEWnlC+Kwbv+wmPVgMsgPlwuRGwuRIfHdB2VDVomgvyjysswLfdlYS+xUDyMmjk/fo1xVUl4sGycFikBdCueBOK+rRpRr0mF9qUzTCGlHySsoLEc9nRjnsWgwYYzyOo98PU6vZ5MB3GqQFi0Fe9G1C/ro5MPhVZ4XDSZhLNfsyabLF85lRDrsWA0jXPZ7kvYbq/8ZukBQsBhnh2YSGuNGqunSuBoWwGBSN8LaUOI/U4aTlKfOUx97FoNFSVDItPy58DtqRv9MgIVgMMmKAO01tSMdqUTB/wlPpiOrH7y5YDnsXA8jKpatPyG8r1eXZkyQEi0FqeDQhv8b0Z226xTNsKxvVhZmREhcKMyPxuwuWgcUgFA1p2bTuNHWcb5wEOZ4PFoPU8HanOQ3oYg2+u6BofE+h9SluPGVfIG2OeA4zSsNiEIAbrjymiTuoJl9NKipYDFLDvzFtqkP3+LsLykYNiuhMaXt1VuBHVC0Fi0EkKUN4363bIp6Ou4hgMRQdnrq7C8vr0lkH/n6noqErF+KnU04QW8GisBj+iypeeHS13TzjVMjxbLAYio7+7jSpIR2oRcH83QVFI9SFon6ljKNUkCietIxlYDH8l4xcCo6iIRt4kozCgsVQRKBc8NXdc75Sna2gaNQQXlxIWU35kfxVZ0vDYvgvGg1l5dGWC9RnBc+s99JgMRQRw91ose49Z77nrGyENqH43yj3vpbfaLM8LAYDtFp6HEuLjlCTGeQ0wTgnciBYDC8NjybUz52mN6SDTnSfp0VSOqIHU/oB0mRxuVAMsBiMUefTuQc0fBM1mmqcEzkQLIaXRl/diwsbXOhGNQp5Lq9xmBwqJwprSSl/aNUqvudcPLAYjEHRkJhOR24L70I78dOrzwWL4cWBcmGQOy2pR6dq8kUkRaOK8OVO4SJSEH/ov9hgMbyA/AIKS6DFR/iVtxcEi+HF0V93EelQLbpXhWdRVTJCXSh6gDD7RUGyeH4ylofF8GJy8ujaE/LfJnzijSfXezZYDC8IryY0ujFtqyNcRDLKaxxmRuQvlLJRy5/iKV5YDC8lI4f2XBMmXq07id3w32AxGIdHExrhJlxEuuLAU6gqGtUpzE2YQjUvhOdEKmZYDC+lQENxabT9Ev20hGpPNM6PdhssBoOAFfq708IGdMFBeBKJX1xQLKoKVoib+PcUqnzPuVhhMRRGgVb4ks+aU9R0hnF+tNtgMRiEVxNhYu39us928q0FBSO0rjZmIGWepIIUfj61+GExFEG2mu5G0Jg/qRm7QRcshv+GjzuNb0Q7atM1nlhb0VA5UWR3St0iTKzNvApYDEWg1VJaFp24QyM2UsMp/EY0i+HvQK3g70pbnQUr8K0FxQItWY0ifqCE+ZT3iDS54nnIFC8shqLRaIWP+ey/Tv3X8jRKLAZdeDShoW60rB7dqspWUDSqkspF+AiPOpQn1n6FsBgkgbohKpl2XqZfV1I9+56Xm8Wge5fNjRY0oGNO9IinvlAwvqfQhhQ/jbKvkBa1AlvhlcFikEFYIq06KbwRXWciOTyXMe0k7F0Mnk1ooDvNakh/1aK7/BEeRSO0AcUMpKwLVJAqnnLMK4LFIIO8fHoUSzP2U4f5VMtep9izazGgVoAVpjekI450lx9DUjCqkKo2RXtT2j7dtxb4MaRXDItBBqhsM3MpKIJmHqDWc+z0RrRdi6G/O01rREecKKga31pQLr6n0DoU7UOpOyg/ht9wtgZYDPLQaCk7jy4/ppn7yW26PdYNdioG1Ap9m9D0RrTHme7wDWdFQ+UsWCFtB6nDidgKVgGLQTaoGzJy6coTGr9T+A6ovbnBHsUAKwxwp8mutLu27jGk51Ibh4mBWqEBRXlS6nadFfgKkrXAYjAFuCErV/hG9KTd1HyWfV1TskcxeLvTJFc67CRYge8rKBgqR4ryEKyQH8NWsCpYDCai0VJuPl0PFe43uNvTNSX7EgNqhX5NaEoj2leLblelR8+lNg4TA36toruvACvEkVYtnleMdcBiMIvMHOF+w4x91G6uvbjBjsSgv4I0rZF4BYknyFMwQuvraoUdWnWYeC4x1gSLwVyy8+heFE3cRW3m2MUX3+xFDLCCjztNRq3gTEH8ZKqioXIR7iuk7aT8KPEsYqwMFoO5aLRC3XA9lKbupbZzyXmCjb/7ZhdigBUGuQm1wn5nuskfcFYwdDNeRA/QXUGK5ytIVguLQQG0WuGrPkERtOio7T+nZPtiEK4gudGchuLdZn4yVcEIdaFYP0r7i9SRfLfZmmExKIOWSF2gDY6m5cfJc5XwQVCjfGozYeNi8GxCg91obgNhxotgvoKkYNQQvukfG0CZx4XJtPmLbNYNi0FJ8gsoNlWYa2/wH+Q61TYfY7VZMaBQ8HYXPt08v74wO94dvtusVHxPKgeKaE/xkyn7su7DO2wFa4fFoDAaLWVk0+FbNHyDbc7DarNiQK0Q4Eob69D1avSAP9KpXKhQKzSjpGWkfkKabF11zVg7LAbl0WqFuuHkPZqxl35cSHUnk4MNlQ62KQYfd5rWkLbVoUs1+PKRcvE9hblSdH9K2Uy5D3gm7RIEi8FSoG64oaKlx6jXcpsqHWxNDF66T+7MaEi7nel6dS4UlIvqFN6SYkdT+m7dFzr58lFJgsVgKVA35KopOoU2nKNfl5PbVBt5Wsl2xOChs8KoxrSoHp1woCB+AEmpqCp8tDm8HSXMoKyLpEnnB5BKHCwGCwI35GuEy0pn7tPMfdRpvvAGXEm/rGQjYvDUXT4a60qbXOhiTbrHDyApFVWFefEie1HKBsq9Q5oM0rIVSh4shuIgPZuCwmnxEaF0aDCFHEvyC9K2IAZYAYXC/Aa0qzZdcaAQ/jynchHehuL8Kf0vylORNls8AZiSBouhOEDpUKCh4Ejacp5GbaKO88llknHCLSlRssUAJQxyowmutLoeHXOkYJ4tValAodBIKBQS51LWGaFQEL6swLeaSyoshuIjv4CSMuhGKM07RF0WCR+OLokvOpRUMejvKAx2o5kN6EAt4ZXmR6wEReJ74YFUWCF6IKUdJnWUbqILVkLJhsVQrKBuyMylkDjadZlGbxG+5VCrpM2tVCLFACv0a0LjXekPFzpVU/cJNqPsxmFqqJwosjslLaHsa1SQxNMf2QYshlcA9BCdLNyRXnqcvNdQ0xnGydeao+SJwdudfBvTgobCHYWLNegBFwoKhcqZwjtS3EThq5y590mbI/ZvpuTDYnhlFBRQXDrtv05jtwp3HVynUq2ScFO6xIjBoyl5t6bhHem3trSmHp2tQfdZCYrE96SqSWHuFNWHEhdSzh3SZIl9mrEVWAyvEnUBpWTSwxidHrZRuznCTWkrf2apBIgBSujbkob+SNMG0dYpdD6AgtrSw/r0uOZzOY5DVkAJjhTmRpE9KWEOZZwgdYTOCvxAqq3BYnj16G9KX31CqwKFK0tu041zsVVFCRBDv1bk70kbF9GVUxQZTCk3KHUXxY2j8A7PZToOOYFCIaIHJc6nzBOU+1A3HR4rwTZhMVgLuWp6HEd/3aS5f5HPGmo9m2pPNE7K1hDWKwbPZjSwI030puVT6dA2enSHsnWXOLT52oJk4RXc5LXCxwAifqLQusYpj6PwCG0oVAlx4yllK+Xc1VUJ/NyRLcNisBb07zrk5FFUMp0IEt6U7rOCWs4S5uBztKanWq1PDLoLR4M7U4AHLRpPh7ZSyF3KSKN8tdCmIhrS5gnPzOQEUfI6ihkiTNiAZPekqnEG5PhvVBGeOApzpYgOFDuKUjdT7l2hSuCnUe0AFoPVodEI35FOTBcuLi05Qj8tFtxglJ1fYVidGFAoDOtCSybRmYMUHUqZ6ZSf94wSnkUrJDWktrwQSttNsSNIVeu5bMjxd6gcKbw9xY2ljENatUo3uQUrwV5gMVgpyGwZ2fQomo7fpZWB5LuFOi0Qbk3XHPeK33uwCjEIt5dbkG9PmutHfy4VlHD/JiXGClVC0UAPeaSOFj4ak7pVeNpSuLhUT/jE2BM7f2wJu/89qapTaGOK6k9JCynjIOXc4I8z2yEsBmtH/9LD6WBafoJG/0k9l1KzmVT3t1f21vQrFoNXCxrUicb2obmjaetyunCMwkMoL1dsLFloC4SJP7OvUMpaigugKC8Kb62rIexTD9WEt5cjOlB0X4qfSml7Ke8RafjVBDuFxVAC0GgoL5/Scyg8kfZeo4m7yGsVtZ1DDaeQc7HfoH41YvBqST7taGgXGudFC8fR3vUUfINSEgUlFBS85MKRFHQXlzSplPeYMk5SwnyK8qCwVsLtBxgCY2fbl0Q1UrkIT6CGd6QYX0peQVmnKD9a+NSa8FlmvnBkp7AYSgzIfuoCSsygJ/F0I4y2XqAJ26n7YuErQLUnClNrFE8NUXxi8GhGXs2FG8verSmgDy2aQLvW0Y1zFPqQEmKEJ44gTGXQkAaCSSV1uDCvQ9puip9OUX0prDWF1hEmAkL2fGJLM7DCdvCBg/DqclgLihlOScuF+VBz7+mUkMrz3zEshhIJDBGdLNydRgGx5BhN2kneq4UnXJ0t/y2gYhIDlDC8K03qL/hg2wo6uZ9uX6aIJ5Sdadn5/bW5wufGcm5RRqBwByJhujA3XMQPukeYbMMNVUlVmyJ/olhfSlwg7GPWOeFufH4CaeEDhhFgMZRUNLrHW7PzKC6NbofRvms0/xCN3ESeK6nrQmoxixr8Rk4W8ISlxCDcT25FQ34gv19o8gD6PYA2LaLD2+nGeYqPopxMKsgXSgTTrxpJB2spELKkJl14QDPjECWvpvgpFO0j5FPhQlN9UqGGMEq4VhwoDkLdhEeMIn+m6AEUN4FS1lPWWcoL1T1rBB/AtVwiMP+FxVCyQZ6EIfILKEdNGTnCOxDXnghXmSbtoj4rqdUc4btAdScLU3zXmqDMZBuKiQEmQFnQrxX1b0MD2tOQH2lsb+H+wbaVwi3lmHDhwdO8HFKri8sHz6MVkiZqCE02FSRQzk1K3S5cZYruK1yBCXWhUGfhmU6kXet6HwKVTXXdlSIn4VJYaD1BCagPkpZS+gHKDSJNmvAJHW2ervZiHzAvgMVgU+RrKDOHYtOEl6iDwunEXdp8nhYcJN/N1Gs5tZotuMEhwKwHXpUQQ1PBCgM7CneSURmsn09/baGLJ+j+LQp7RLGRlJZs+HqaNVBAmkzKjyO1Snj1N+sCpe8VUm1cAEV7CV+9F9IxQvfEpxhG+dpy8XSNVXQPm8IEnSjaW3gSN+UPSj9MWZcp94Ewr1FBoiA5lgFTFCwGWyYzV7gVERxJZx/Q/hu04azwjaDJu2jkZmFSpl7LqPN8aqa76CS9mJApBt1ryQM60MjuNL4vzRhBCwJoxTTaspT2b6RTB4SbyQ+DKCaCsjKszASFoH9RLlGYLyjrImUcprQtlLSIEqYJMzLFDBU+ZBbRQVdVNLBYMVFNVxDUp7CWFNGFonpT9GBhyorEecKFr7QdlHFUeBJXHaarD/hmMiMPFoMdob8nEZYo3LU+dIv+vECLjgg3rodtFKbf+Gkx/fi78Bpdh3nUdi61nE3NZ1KzGeQ+ndym/Te6TEm+4Dsza+jPwv2AZ2N4NyH7j+pJvj+TXy8K8BSmLZo8gGaOEG4g/7GA9m2iM4fp5kUKfSDcQ9YUiJtlG0AV+dHa3GDKOk0p8MTvwtsAsaOFuakju1NEV4roLDwSGt5eeFsivDmFNaOwJsKrZIVHWFPhj4XAr9pTREeK+JEiu1FUL4oZKMxUARslrxTuIWcEUu59bUGqTgMMYxYsBjsCg0aNVnglApVEapYwpWtsKkUmC6p4Ek83Q+nUPTpyW7iPDWesDqTFR4QZ/abvFYqMSX/H/J0Zjzfszl/3O62d+9/YsIC2r6S9G+jgVjq2m04f1JUCt4VHS6NChatDCbHCawfpqUJlkJuje9LUxsawujJCi11LFyZlyo8VHv1UR1LeE8q5TVnnKeOYcIk/bSclb6CkZcJlqMS5QlovLKYLFQD+GKk/ZZMwR2z6Qco8I5QCuXdJHSpcHcqPEd5MxhqxXuF9NH75gFEAFgMjAmGkZVNypjBNU0wKRSSSKo5CYuhBFAU/E48i8zPDoij0kZD0n0bYI1EA8TGUFC84AAJQ55n39pltoJuBQ5MhzNFUkEj5cdp82CJUFyGU96CowN9AAGFadTQEoNULQLh1zNMWMRaExcAwDMMYwGJgGIZhDGAxMAzDMAawGBiGYRgDWAwMwzCMASwGhmEYxgAWA8MwDGMAi4FhGIYxgMXAMAzDGMBiYBiGYQxgMTAMwzAGsBgYhmEYA1gMDMMwjAEsBoZhGMYAFgPDMAxjAIuBYRiGMYDFwDAMwxjAYmAYhmEMYDEwDMMwBrAYGIZhGANYDAzDMIwBLAaGYRjGABYDwzAMYwCLgWEYhjGAxcAwDMMYwGJgGIZhDGAxMAzDMAawGBiGYRgDWAwMwzCMASwGhmEYxgAWA8MwDGMAi4FhGIYxgMXAMAzDGMBiYBiGYQxgMTAMwzAGsBgYhmEYA1gMDMMwjAEsBoZhGMYAFgPDMAxjAIuBYRiGMYDFwDAMwxjAYmAYhmEMYDEwDMMwBrAYGIZhGANYDAzDMIwBLAaGYRjGABYDwzAMYwCLgWEYhjGAxcAwDMMYwGJgGIZhDGAxMAzDMAawGBiGYRgDWAwMwzCMASwGhmEYxgAWA8MwDGMAi4FhGIYxgMXAMAzDGMBiYBiGYQxgMTAMwzAGsBgYhmEYA1gMDMMwjAEsBoZhGMYAFgPDMAxjAIuBYRiGMYDFwDAMwxjAYmAYhmEMYDEwDMMwBrAYGIZhGANYDAzDMIwBLAaGYRjGABYDwzAMYwCLgWEYhjGAxcAwDMMYwGJgGIZhDGAxMAzDMAawGBiGYRgDWAwMwzCMASwGhmEYxgAWA8MwDGMAi4FhGIYxwJbFUFBQkJubm56enpKSkpSUFB8fHx0dHRUVFRkZGf43ERER+MeYmJjY2NiEhITk5OS0tLSsrKz8/HytVisuyMJoNBpsqizEXzIMw1gAWxMDkixyOnyQnZ2NpH/hwoXNmzcvWbJk6tSpw4cP/+WXX7p169auXTs3N7fGOlq0aNG1a9fevXt7e3uPHj163rx569atO3bs2MOHD1NTU7EctVqNRGw5SWDJsFFoaKhKMnAY9lH8PcMwjNLYmhgw6r9+/fq2bdtmz54NE/To0aNp06YuLi7VqlWrWLFiqVKl3nvvvX/961//8z//8//peOONN/AvpUuXLleu3FdffVWrVi1XV9dOnTr5+PhMnjx57dq1J06cePToEQwhrkBpYLLAwECsa8iQIQOkAc/BJeLvGYZhlKbEiwEjbozokSiDg4NPnjy5evXqkSNHNmvWrHz58v/5z3/+3//7f0j9r+v4xz/+AR/o0VtBD/4n/hN47bXX8Gf4+zfffPOtt9766KOPnJ2dUWRMnz794MGDt27dioyMzMrKQioX160E2PjFixc7ODi8++67/5RG27Ztw8LCxN8zDMMoTckWA3J0dnZ2TEzMkSNH4AOkVwz89TUBsryRAOQCVcArsEuZMmWqVq3au3fvVatWQQ8pKSkKXsmBGH7//ffvv/8e6xJXXBQtWrQIDQ0Vf88wDKM0JVsMKBT27ds3ePDgBg0aVKhQAT5ANhfTp3JgmRinly1b1tHR8eeff164cGFQUJBSbmAxMAxjbZRIMWi12oyMjBs3bixZsuTHH38sX778m2++aWZ9IAWsBXqoV6/e8OHD9+7dq0jpwGJgGMbaKHliUKvViYmJ58+f9/Pz+/bbb1EliPmyGHnnnXeaNm164MCBkJCQzMxMcctMgsXAMIy1UcLEkJeX9/Dhw7Vr13bo0MFy146K5LXXXnvvvfegpVGjRp08eTI7O9vkO9IsBoZhrI2SJAYk39u3b8+aNatOnTqlSpVCdhYz5avj66+/7t+///Hjx9PS0sStlAmLgWEYa6PEiCEnJ+fevXszZsxwcXF5JVXCC8GWfPHFF15eXnCDae8WsBgYhrE2SoYYsrOz7969O23atNq1a//73/8WE6R18MYbb3z22Wfe3t6BgYHp6ely35FmMTAMY22UADEg1T548ABWqFq16rMvLVsPr7/+OtwwePDgc+fOqdVqcbulwWJgGMbasHYxwArBwcFz585FrfD222+LqdH6ePPNN7/55pvRo0ffv38/Ly9P3HoJsBgYhrE2rFoMGo0mMzNzzZo1bm5uCj6W+o9//AN5HAtELlb2DraTk9OyZctiY2OlP6TEYmAYxtqwajFkZWXdvHmzZ8+e7777rjk3nN94441///vf//u///vhhx9+9NFH5cuXr1SpkoODQ5UqVb744otPPvmkTJkypUqVwlpgC3NUgSW4u7ufPXtW+ssNLAaGYawN6xUDBt0PHz709PT8v//7P9OS9f/8z/+8/vrryPWVK1du167dyJEjFy1a9Oeff/7111+BgYFnzpw5derUiRMn8D/Xrl07bdq0fv36ubq6fvzxx6gnsEYTbmbgV7DOhAkTgoKCxN0oChYDwzDWhvWKISEhYdu2bd9++y3StJgR5YC0/v7776Ms6NWr19y5c/ft23f9+vXIyMj09HSj+8P5+fmJiYmPHj06d+7cli1bxo8f37Fjx6+//vqf//ynuCw5oDSpV6/e9u3bsRYpTyixGBiGsTasUQzIp3l5eWfPnvXx8UFyF9OhZP7xj3+89dZbFSpUQJUwY8aMS5cuxcfHY4EQAKqQFyZr/CMSNP4gNzc3Kirq4MGDvr6+7u7u5cqVg5ZklQ5Y+3vvvTdu3DiVSiXlCSUWA8Mw1oY1igEJOiYmZv78+ZUqVZJbLiAvY8z+3XffDRs27MSJEygFoATpt4IBMnV2dnZsbOypU6d69+4NN7z++uvi0qXx2muvtWrV6s8//5TyOrSlxQDnYfeB3nwA/4+UUsZ6eKptiBZYeheMWky/RvzPktVoL0O/d892BgvtmtCCz61I/G/WhFGDgKdtYolmKSlYoxgyMzOPHj3as2fPd955R+6F/nfffbdx48ZLliy5efNmamqqyYcWPQM/P3369MCBA8uWLSvLDdjmTz75ZMCAAWFhYehk4hJfAv7AomKAFxMSEuC5J0+e3Lt37/HjxyiJTHgR71WB9snKyoqOjn7w4MFtHffv34+MjMzIyCiybU0AeQHdD+MJtBjWcvfu3Vu3bj169CguLu75i5AlEfQHFNDomWhG7B06A/p5Tk6Osv0BhyYpKQltiBVhLWjAiIiI5ORkSxwyc9D3LmwqjnVISAg2Fc2CbcbhxqgObSX+nf1hdWJARkYWmDZtWo0aNeSm43/+85/Nmzdfvnw5kqD5BxVbguyDssPLy+ujjz6SdQP8jTfecHNzO3z4MLKJuLiXgK6poBiwzVgjdv/cuXN79uxZu3bt3Llzx48f7+/vP2LEiEGDBg0fPnzMmDG//fYbVrp58+ZDhw4h8SE1KHLGIrmg1EOldeTIEex7kRw7duzy5cvP11XYC2Tnhw8fovE3btw4Y8YMbPOQIUN8dOD/8fPzwz/u2LEDGUf8jakgW0E5+ubasGHD4sWLp06dOm7cOLQY1oJhQf/+/YcOHRoQEIBGQ2OuWrUK6z1+/PiNGzfQUbGp4oIUBS7HvovNVBRnzpxBO7zsQTioDia4dOnS3r17161bN2/ePOzdqFGj0IzYOzTspEmTUJ2jnf/66y8Mp7BqEzoDfoKWRF86ePDg+vXr0bsmTpyINvT19cVaUL6PHj168uTJixYtwoqwazi4KSkpxSladE6sDocMBw7jzm3btq1evXrhwoVINThBcKxxamBTBw8ejMbBlmNr58yZs2LFiq1bt6I/X716FSed4h9wtFqsTgy5ubk4cl26dMHYX1a5gMT6xRdfLF26FP5X8OChKyBrIMu/99574pqk8c033yDFhIeHiwt6CUqJAcvBpuLfAwMD0d09PT0bNGhQvnz5t95664VP+kKiWGnr1q1xDiC5BAcHo92QRMwZOWIbUGN5eHh06tSpnQR+/PFHnJAoYsTf69CXOBcuXEAK69atGzYSlhU3+hn+9a9/oR127twp/kwOevHoq5D9+/fPnj0bzdWwYcOvv/76gw8+eGFz6UGjffzxx87Ozp07d0bKg0iCgoLQ5siJZjadEdeuXevevbvYTEXRt29fbAmG5OKPdWBj9MXBnTt3tm/fjvrV1dW1YsWKb7/99vOnFUrzypUrN2vWDIdj9+7d0AyGF1L0gJbECYvxNYrRffv2jR07tmXLll999RXW8vxACv/yv//7v5UqVeratSva/MCBAxihozhDvlaw6YzQtwMOELoZkvumTZtw4Dp27FizZs1PP/30ha3xFJySpUuXdnBwQCNjcLBs2bKTJ0/iTEElhHNNSvuUXKxODEgKGNfg3JM1Qscff/755zh4GBkpe4qi66PcRu7GJhWSMp6nTJkyPXv2xAkjLuglKCIGnJwYqqPXYrxTt25dnP9YO852LPNl24x/hzNwon7yySdVq1ZFKl+5ciXGceZUD2j5Xbt2odRDgfW+BHBmtmnT5vbt2/qf46hlZ2fjxMNQDqci0nSpUqWwkS88dU0QA5aPXUMViAOKYgXjRPgeLY+eo28uLLPwIhWN9uabb/7nP/+BP8qVKwf316tXD1JBZYbNRo7DgVBkUILNw0EUm6kokLkwvMWxE3+s61Sow9CwKAU6dOiAlsQRwUgLYnvhaYV/RDtj6IPOgIyJPYIvMaZB+ivkVEJCxy4j22JkjVT73Xff4efoUVgLGur5o4Z/QfOikXFY0eZovZ9++gn1/f3797G1iudZvbQw3EEZtGbNml9++QWn8JdffokDh8MHJeDsKDzJYIP1r0ChkTEgwBGBPtGeqB1RMuIcxPBC8c22EqxODCEhIchu6DfiwZFG2bJlMfw8deoU6lNxQcqB7oWzDgNh5A7pbkB/wpgdQz9xKS8BHct8MaDGWrBgAbrs//3f/+HEE/9OMjg9cKo4OTlh7IkhFYbS4nJlAjH8+eef2AaJ+4KTs1GjRth4/c9zcnLgNgxacQJjewrP0SaIQX8lYc+ePVhFq1atvv32Wxwj6Qf0efBb7CmyITYYeWfx4sXYF0Xu3/z111/IsOJqigINPmbMGJhJ/1v0KORrLKFfv36Ojo5oSfHvpAHzYY8aN24cEBCA6rOQS7Kot2BE7DiGAliLCS0JXem/h4gzF4N6cbkKgSEOpIXSpEePHjhASBEvLD3lAklAD82bN0cRhu6HAZlNusG6xIBeqL9ug0GZeByk4eLigmGmJaygB8d+0aJF1atXl56+kW0xhjpy5AhGwYVkCjPFgDQUFBQ0YcKE2rVrv+yqkXRweiNjYk/v3LmDNK1fhXTMEQPGjFeuXMGYAANJ8T8XiiwxYPCIkeP58+fnzZv3ww8/VKhQQe7TbkWCfUEnHDFixPbt25ExC8mnUjBZDOhOsbGxaJaff/4Zg1xZd+meBYPlr776auDAgRcuXECG1W/VUzBUwj6iHHF3d0eiLHzcXTgoL3A4vL299+3bp0iSxbHGCODRo0c4EIMGDcI5KzeZSAEnWunSpVHXLlmy5Pr16yhDxdXbClYkBmTPhISEzZs3o0dKT3D4S5yTffr0QUGKDiEuS2nQ2zCYRdGAelxcsQRQ96BSjoiIKOTygjliQCV76dIlX1/fqlWr4gR74SUXWaAxsYPwGUaLt27dQnaTNfg1WQxohNu3b/v7+8MKEod10sUAw+EQ7N27F/XQl19++d577yFdmt9WRqDpsEllypTBsGbmzJn37t172d1gKZgmBjQj/Ld79+5OnTqVKlXKZCvowYHAmYhxMdyAwY24Zbr2xLqmT59et25d7LL0U/WF6K8vIcl26dJl27ZtqHXMcQN+i9Ehuu6sWbOaNm2KNkRXNHMLXwZ0iIqzSpUqqHhOnDgRFxdnzpZbG1YkBjTr3bt3J02aVK5cObHtJYCu6eTkhCoe0ja/hH8ZWHJkZOScOXM+/PBDccUSQJoYNWrUtWvXkDHFBT0H9tpkMaBShhVQ+Ev/bZHgRMVoulKlShj8YgQny7WmiQHtgzHppk2b0Ag4muJ/KwrpYnjy5MmCBQvq16+vvzyluBKeBTlI/xoNjkuRVxELwTQxQEVI4m3btoUVFMmG6Anow1OmTHl6nQpgMD5jxgwkRFSo4t+ZDbYWwu7YsePp06fNESp+e+bMmZ49e6IDo3eJS7ckaKKyZcu6urquXr0aay9kCFiysCIxIK0cPnwYAwcUp2KrSwDnDwbyp06dsly5oAeDpq1bt3799dcYSSG5SAHnZ69evQIDAwvZNtPEgGSXlpa2aNGiGjVqmFPIvwyc887OzqtWrTK6mVE4pokBRc/Zs2e9vb1RrEhPZ1LEgO1BRps/f76Li4usUs9MsG1ITOiW27dvT05ONiFZmCAGDKqQE/WvZCrYJXBEGjZsuHLlSvR/VJCovdArUCvAf+JfKEf58uUHDx6MYsuEcxmNnJ6efvDgQTT7Z599hgJaXKjl0VutefPmaKWEhARxg0o4ViQGdLs//vjDwcFB+kgEhwSdAOPBqKioYnA1Ruj9+/dHD2gsjXbt2qEAunLliuJi0GeBbt26We4EwPgae7p//37ppZgJYkDSOX78+Ny5c6tXry7r0keRYkB3wtgWbQv3KHLXUS4oLjt16nT06FETbn3JFYOfnx/GRjNnztRXReJ/UAhsCcY3d+7cQdZDf8DQzRJWAOg2OBFQO6JUFRtCMvAWqiUfHx94UfrwQkHghiZNmuBwP/9eTknEisSQk5Mzb948WQ8PIC06OTkdOHCgeK7uofNhxIQRjfACrgSQvvH3KDALSawmiKFZs2bIAkOGDEFGsES5oAdnF5oXGScoKEiidE0QA8byGzduRN6RfhFJT+FiwJZERkZixFCvXj2MM1C9iT8rRnBoPv30UwzhL1++nJubK+s6p1wx+Pr6ojDq2rWrJXIidgRnGZavv3T58ccfW6jX4TBBbGixEydOyGounEQobbFt33zzjeKPFUgELY/chYEjBoLofuKWlVisRQzoByi6x40bh5wi/TTGyfPjjz9ipCAuxcIgP+KQQ2DSQa1QuLRMEEOdOnUWL17coEEDJEdLpzwMt1evXi0xr8kVAwaeKBTgHjc3N7nj3ELEgMMEH6P6dHV1fVfma5LKgnb48ssvR40aBTegghG3TwKyxFCxYkWMElA+fvfdd+I/KQoasHz58j169MC4rWXLlsi8lmtSLPyLL76A0VGnShyOoGeiwlixYgXOC9MGAfgJ0jp6IIDzgGl+xcZXrlwZpzMsVdLdYC1iQCdA4T9w4ECxjaWBsnH06NFFvkRmzZggBuw1itaPPvpI/N+WBGtBef7kyRO4QdzilyNXDDiRsHxnZ+fPP/9c7qlYiBiQU44cOaJ/Mkf861cHmqJq1apz584NDw+XmOmALDG8//77yInIp++88474T0rzn//85+uvv8ZYRO4LRnJBjkav8PT0vHHjBsZVYnMUCv7s3Llz7du3R7UhLkUy6HU4QGhAmA+HCUCu6MBlypTBZoh/JAc01A8//LBv376srCxx+0om1iIG5Mfz58/37NlTbGBp4GRYuHBhkdNOWDMmiAG9+Y033nhZJsW/o0//U4fcYfjzYEUYzu/ZsycpKUnc4pcjVwxPR2ov25dCKEQMd+/enTBhAup6ubuPzXj77bc/++yzKlWqQFf169dv3Lgxyg4XFxdUNhj7I/WgbWWNSfHHOBDt2rXDphZ+UfFZZIkBq9APdY02DP8T/4iGgjDee+891Gcm32vRL+qFvU7/n9AsGK1jm7Eu7K/430wCC9TXqRJfedM/dYajZrT7hYC9QLN8+umnOMqtW7dG2hk6dOhUHeg5I0eO/PXXXzH2giTkPvWLJkIBN3HixLi4OFlXw6wNaxGDWq0+cOAAtC82sDS+/fbbzZs3x8fHi0spgZgghudBR8eZiTMfZ+bHH38MX6JPA5wt+BeMYnAamCYJLPmbb77x8/NTqVTiFr8cuWIoBJzk2GAsB+kGyRq7gIyD/4v/H/+C1IP/iVN6165d4rp14FTENqxZswYJHX8jPVPoV4eRo6Oj44ABA5CVjh07dvPmTew1CtkLFy6gmyFltGrVqpDpp14GFo7CCLnm8ePHEi8oyRLD8yBTY/chA+Q+SA6Gg94cHBww3n/33XfRqrK2/2Vgv5AHcSDQ5WBNLN/d3R3rqlSpEjYeRwp90rQVoQMPGzZM4hv4GJ7Du9KfOsMmYdsqV66MUnj//v2hoaGxsbEJCQnwkJ7ExMSYmJjbt28vWbKkTZs2pUuXRnuKP5YA2qRHjx5BQUEl+mqStYgBJ8zGjRthabF1pVGtWrXAwMASXbUpIgb91AIDBw5csWIFRveHdROXAuSXTZs2YfzSqVMn5GtZ/VsPTn7kF4zNpXysVCkxYDuRbrAcJBpPT09fX18k5d9++w07gnyBDNu2bduGDRv27dsXeyquWwd6QnBwMP4AQ3tZKQknM5Im1rV9+3ZkhKeTUWt0M/VjpI8BIAxx8uTJefPmoTXkXrXA8qGclStXRkZGittaKOaIAYb75JNPYE2Mf1GmoBucPn367NmzJ06cwN6hGZs1aybrdZyXgfSKnfL39//jjz+QnY8fP37u3Dms6+jRo+gGo0aNqlOnjqxHkJ+CLvfDDz+EhYWJzVEoS5cu/frrr6V3Oegf/QfuR5dGHfzC63sYYeTm5kZERGC02rt3b7Sn+GNpoMjesWMHuo24uBKItYgBh2HZsmXIbmLTSgDpAz0PwzqcuuJSSiBmigEnHk7OQYMGrV27FgNbDHxQe6FbPwW9E7ly7969yK3IaDgrkKTEH0sDiQajTpz2RV7zVUQMkFyDBg0wmps+fTqshlx848YN7MLDhw/xf69cuYIEh3yH/d29e/ezM8cBJPRFixahQcRlSQNbiyEqtIocigHjy+4EoDHRSzHqRx5EaYthsqyUV6ZMmY4dO+IYSRlImiwGFAoYLWFfkJjQODhk+m6gB+J88OABqh80Lwb4Jo/o0YWQK9EICxcuhEfRaBjYievQkZ2dff369eXLl2PsjGJCbn/A8lHz3blzp/C2wn+FsFHOYhghcdBTqlSppk2b4giiq2A7xQW9HOwaRlqoFOEq6W1VvXr1OXPm4LfiUkogViSG+fPn16pVS2xaCfzrX//CiPL+/fviIkom5ojhrbfecnJyQhfEYFZc3MtBgYwujpoMGUr6NRY95cuXx7mEirvwc8kcMeivSyDborhB0sdgTUoCfRYkdCikZcuWsobD0N5nn332yy+/XL16VeJ1HhQT2E0kCwyZxaVIACuC86C656ceeh7TxIBmR+OPGTMGyVpc0IvAQYQzUDqgSDLhSCE/Ir3++OOPGG3ANIV4VH9b2MvLy4QnXNGxT506VfjFAP27Cz179sReYPlSejWGkhg6yHoNDSfOlClTcIbCo+JSigJHYfjw4ZCWuIgSiLWIAX0II0SYVmzaokAnwGC5Xbt2RmPGEodpYsDuo5u6uLjMmjULFXeRY3mAPItREjIOMtp//vMfWW4oV67cjBkz0NSWEwM0//XXX6OsOX36tP4b3VIGdM+SkpKCGgJrl1USIVl369YtMDAQP5e4RhyymJiYuXPn1qxZE+leXFBRoMEhknHjxmEgLC7o5ZggBuRrNODgwYNRVBV5cRUp9cyZMygsIEW5RQM6Dyp7DDKQ+F5mBT34rxg1o9bUl6ri76WBugdHs/BBd0ZGBhpqwIABOBCo+cqWLYsxAaSFdaH1MMZHikAxgWb/97//jVEU/q+3t/e9e/eknC9PSU9P3759e5s2bbAEceOKonTp0tAVTjdxESUQKxIDksJ3kh/ERm9GP/j555+fPHkiLqJkYpoYkEarVKkyefJk9PLCT85nUavVONMgYAcHB1npAB195MiRN2/eLHxd5ojh22+/RQfAkB9nu7g4mQQFBQUEBMjNpyg6V61ahVGh9GYEOGrYVLSJ9GQBYCxYeceOHeJSXo4JYkCXaN++PbKwxBet0ROOHj3arFkzJFBxEdL46quvxo4dq1Kp0Ajisl4OWhUSXbhwIYbq4u+lUalSpdWrVxf+CjT6Mzbj7NmzUMiWLVtQ1K5cuRJnE84LbOGIESPgDA8Pj65du7Zu3bp58+adO3dGxQYpyjrWSE3Xr1/v378/jChuXFFASDgWqHrFRZRArEUMOFqjR4/+8ssvxaYtCuQ1FML9+vWTNZmPFWKaGDAsQk9FnY5zQ1yQZDBU/PXXX6UPdcEHH3yAE+z8+fOWEMNrr72GigTLv3XrVpFD3UI4dOhQ27ZtkR/F5RYF1oshJHpdcHCw3MtWqC0yMzN37tz5zTffSH86U99pp06dqr8PJC7rRcgVA5ZcoUIFeBHpXvq+YEg7ZMgQ/FBcSlGg6MGRxfAf+pHubyTW27dvy30SHQ27aNEiiffqn4J9T0tLQ0ZGdYuBAoon9PaDBw9u27Zt8+bN+/btk3LR1QgcLIw+0U+Q7sWNKwooBCoq0Y/RW5EYhg0bJr2P2rMYsO8wKMY+CQkJssY+evCrOXPmoJdLv+yLQSWGXYGBgZYQAwbdqNPxQ+QauZeP9OBXWDUGjFWrVpV+HQlWQNWF9Zpw2QqgKa5du9a7d++PP/5YXKIE3nzzTRgdh6Dw9C1XDNB8y5YtsS/YKun7gjpp3rx5NWrUEJdSFOgwZcqUwTAcA3npHQ89PDU1dfjw4dhI6RcwTRMD9h0bhrZFNsdhzc3NhZYw2oDF0bvwf00YSGE59+/fx/a/I/n9QRaDYkAMQ4cOLV++vNi0RWHPYnhbNykpygUptfzzoKNjAFW9enVkRnGJRQEx/PjjjydOnFBcDDiOpUuXRuGPIZ5puwPww6SkJIzEUUhJTz2ffvophoE3/v5+nAlER0djHFqtWjVxiRLA/nbr1q3I2kiuGOAb7AsWK/5eGhhcb926tWHDhuJSigJrqVy58pQpU6TcP3+KPln/9ttvqDulj0VME4Ml0N+PwQhA+rMGLAbFQOuPGzeuUqVKYtMWBU4wjNRwtOzwHsNHH32EHb979664CJlgjUePHm3btq30+4GWE8M///lPBweHtWvXIkmZMGzXg4HhvXv3hgwZIusxoW+//Xb79u2FX8UuHHTa4ODgJk2aSC9T0G9dXV311Z64lBchVwxocIz95d7txAgaK5L+8hAOlouLy+LFi9PT08VFSAadHGWu9Ad7rEEM6JAoOIJ0X0jUP90rblxRsBgUAwdg2rRpsp5K+vDDD7t27RoSEiIuomRighiQef39/R8/fiwuQiZY4/nz5/v06VOmTBlxiUVhOTG8++67P/zww7Fjxwq/tFI4SHDYth49eki/Ffz66687Oztfu3YNyV1ciknAZ7169ZL+vhv6LY41Ek3hdybligEpG3KVm69RtWCI0Lx5c3EpRfGvf/0LFlm/fj0aXFyEZFasWFFV951BcVlFUfxigAYwwsjIyED1iaNz//79S5cu7dmzZ9KkSXXq1EGuh9TFjSsKFoNiQAz8uKq4b0WBoe7s2bNNfuYBa7x8+bKPj0/ZsmXFJRaF5cRQunTpUaNG3dB93VNcinxSdR+AQ4KTnnfe0c2ogVPX5DJFD1IkKt3KlSuLyy0K9NuKFSsOGDCg8ErXBDHs3LlT7r7IFQO826pVKxxiE54RsAYxoH3UajWGAjhqkCi6TbJuAoz4+PjY2FicUDdv3jx79uzevXuxal9fX1TVX331FQpr1ArSL1ECFoNiwNWohaW/4IbjpB+/2OELbvjjJUuWSJxJ5nmwxitXriA3Sb9rajkxfPLJJzjuyJKFL7lwcG7PnTvXyclJerGPaunnn3825zqSHmSZ+fPno/gQlyuBUqVKdezY8cGDB+IiXoRcMeBc2L17t/hjycgVw7///W/ku61bt5YUMcAE6O36G9HYZpQCd+/ePXLkCHrp8uXL58yZM3ny5OHDh6N67tSpk7u7e4MGDVAcODo6wvTwN44UerIsJehhMSgGxLB06dK6deuKTSuB119/HX9/69YtcwabrxwTxFClShV0a5OTmlWJ4bPPPsO+4Pw3Z+SOEd+ECRMqVaok/RncL774YsSIEbLegH0h6LebN2+WnlsB0qurq2vht4hYDOaLAf08LS0N+QH7iGMEf6O269evX+fOnbHL9erVgwBw3kEAKFtlvY9SJCwGxYDS169f7+bmJjatNGrUqIHSL0fOe4zWBovBfDHExsaOHj0a65X+0AuS1LRp0wp/sVYK6LcYgaJxxOVK4I033kCFUfikhCwGk8WATpiamnr//v3Tp09v2bLFz8/vp59+QilQoUKFd999FxuAzonKEkcBwwh0GPCPf/zDhLKgEFgMioFyb//+/XKn3f7uu+/27Nljwjd1rQcWg/liQFMMGTLkk08+kS6GmjVrYghpfs9Bvz1z5oyst7eQg6pVq3bz5k1xES+CxWCCGNA5UcBFRUWho44cObJu3bply5ZFMyJNY73oG8pm/0JgMSiGPlv17t1bbFppIActWLBA4vS81gmLwXwxREdH9+vX78MPP5T+3Ejt2rWx3jSzv9uOXUZj9unTR1yuNHC4L126hN+KS3kOFoNcMaBnQvOHDx8eNmxYo0aNKlasKOvZZWVhMSgGjqtKpRo8eLDYtNIoV67ciBEjTH6i3xpgMZgvBgwSPTw8ZH2DoX79+n/88YfJ8zI9Bbt8/fp1Ly8vcbnSqFy58smTJwu5BMpikCWGvLy8x48fr1u3rnv37uh+sl6xtgQsBsVAXkhOTvb395d1UN9///0uXbpcuHBBXEoJhMXwSsTQsGHDzZs3vyoxVKpU6fjx44WkVxaDdDGo1eqwsLCVK1c6Oztj+ZZQAvqV9K4FWAxKkp2dPXfu3I8++kj6e6Rvvvlm9erV9+3bh2QnLsWSoAumpqYmJSUlSgN/mZaWhuFMIVmPxaCIGDw9PWWJoW7duqtXr1bkUhLEgLWLy5UGDvfVq1cLaUwWg0QxoA1RK6ALOTk5IR3LSt+FA8FgkIoNxmKRlHA4pC+cxaAkSKAbN26E9tH/xAYuChy8Tz75ZOHChciShecsRXjw4MH8+fN9fX2HS2PMmDHoskGFfv2VxWC+GKKjo318fHD2Sj91a9WqtXjxYllz/rwQjBUuXrzYq1cvcbnSQIrkm8+FI0UM6Mk4guvXr2/SpAlysfhLJUBiQR9G53RxcenSpcvo0aPbtm0r/ZFWFoOSIK0cO3ase/fu0icYAMhZvXv3DgwMxCkqLsgy5Obm7t27t06dOmXLli0ljS+++KJPnz7Hjx+H88SlPAeLwXwxxMbGwtYVK1aU/h4DktSMGTMUeVwVuRW5Q1yuBF577bWaNWsW/pE1FoMUMWAz9NPboX9KfyDtWTCSeOONN3Cqfv755zhbq1WrhhPczc2tQ4cOkL2fn9/SpUv379+P8s7f35+n3X41IGHduXNn4sSJ5cqVExtYAshBlStX1p/klisakLYwLEVpgmSKLigRKGTYsGGXL18uRFosBvPFkJCQMGXKFDSL9IuQX3755ahRoxR5wQ273KJFC3G5EkB6bdSoEb/gVjhFigFdMSoqKiAgAMdd1hUkfTUAGVSoUOG7775zdnZG38bpgLHFvHnzUH8cOnQI9VxERERiYiIqkrS0NKwIeQlngbiIomAxKAlSAw7Drl27oG6xgSWgP8zdunWD1S33phu27dq1a8OHD5d1usJws2fPfvToEXKxuKDnYDGYLwacwHPnznV0dJQ1JUbPnj1NbsOnZGdnL1iwoHbt2uJyJYDhAsriwr8Yw2IoUgxoeZzyUCz2XfyNNNBJypcvj4yBA3fkyBGUbiEhIWFhYVhXfHx8SkpKZmYmCsGnXR29Oi4ubtKkSSyGVwZy1sWLF3Gw0QXFNpZG9erVZ82ahQQhLkhpsGGrVq2qW7eurF5YsWJFeA4jjkKyHovBfDE8vdAsPe/g1EVCREbANotLMQkkkdFyvjyIcQwGqt7e3spOomeHYkDaRQUvaxAJsNhevXotXrwYnRlHv/BzUw+LwSrASEr/jXKxjaXxwQcf4EicP3/ehJniiwTDh8ePH/ft2xc9Q3rRiuSIKvXy5cviUl4Ci8F8MSA7I8FhDCj99qB+XooLFy6Y88QqWhIpo0ePHtK/bAExfPfdd+PGjSs8a7AYihQDyoWff/75ww8/FH9QFDjiKBR8fHxOnz4t66CzGKwCjPo3bdpUq1YtnEJiM0sA+RopxtfX99q1azhdxWUpARJWdHS0/kqFrEuZZcuW/fXXX4ODg8UFvQQWg/liyM3NvXPnzqBBg2S97IrUs2HDBpNnLwcQ0s2bNxs2bCi9Y+Av8fdYb3x8vLiUF8FiKFIM6I2o4CVeWkCzly5dGj3kzJkzGOfJ6mzo1bGxsXyP4RWTk5ODtNWuXTv0dVluQJ9DRT9//nyc6ko9oYQOhMEFhhiurq7Sn0kA+oEhdBJV1Ee1WAzmiwF7lJCQMHnyZOmnLihXrtywYcMw8BSXIh+MGDZv3iz9IyLgtddea9++PXpU4a9QsBgKFwN6y759+ypUqID2FH9QKDh5GzVqhFY1YXYsJJPQ0NAxY8bwU0mvEqQe9AZ/f/9vv/1W4lF/CsYF7u7uS5YsefToEUaR4hJNBVuCE+Ds2bODBw+WXrHqwYnasmXLU6dOYVApLu4lsBjMFwN+i2HgypUrv/rqK+l95p133nF2dt65cyfOfNPWjnLBw8ND+kN0GC4gZaDlsb/YYHEpL4LFUIgYcLCys7M3btwo/az89NNP+/XrV/g3MF4GMsn169d9fHxw7MTFFQWLwSJgkH7o0KGuXbu+9dZbsooG8Pbbb9evXx91A45lamqqyekGOQ6Z9+TJk8OHDy9fvrz05yABthm1i5+fHyrQIjeAxWC+GPQcOHAAMkaKFBddFFAI3DBx4kSVSoU2EZciDWwtxp5btmxB/pKe7DBw+eKLL2bNmlV4MwIWQyFiQOslJSWh25QqVUr866LA0qZNm2ZapkY6Qtt26NCBX3B7xeAsTUxMnDNnjqyJlPUgKaPzYeQ4aNCgwMDA5ORkCL/I8/BZsPacnBz0yG3btnXq1Kls2bJy5+TC33fp0uXgwYNFlguAxaCUGG7cuDFy5EhZV5OQqZEW169fn5aWJquTYLx/7tw5/ShSet/A8AIV7ebNm8WlvBwWQ5FiWLZsmXQxYNWLFy824ZRBt4yPj9d/dVj6w9AsBouAg4HkderUqd69e8u6sv8UJKYKFSqgxwcEBBw/flz6Y6xY9ZMnT6CEgQMHovIoXbq0XDPBCvjVzJkzExISsBficl8Oi0EpMeAoY+047tLffwY4WLA4OgnqS3FBRYEGRC2IQ4wDIWtdSIvDhg1D44sLejksBmXF8PXXX6M0DA0NFRchGezp+fPnMUBEIsIwQlxcUbAYLAjOPZTqEDW6o9jecsA4Dj/89ttvu3fvjuJ9+/btME1QUJBKpYqLi9O/0AhSUlKwoocPH+J0PXTo0Jo1a/z8/Fq1avX5559L78TP8s4777Ro0QLlgrgbRcFiUEoMWPv169c7duyIIk9cugTQTypWrIj68sKFC+np6UVuBtaCrV23bl2zZs3efvtt6eUCutMXX3yB6kTK69YshsLFgDN39erV0sXwySefeHl5yf0+fG5uLn4yYcIEeEVckDRYDJYFg3fkL5xO0l39PDh1P/zwQ0dHRxhi/PjxS5cuhSRwPhzTARmgo8+dO3fo0KHwATqQaT7Q88Ybb6BDL1y48PHjx+I+FAWLQSkxALTJqlWr6tSpIz1fA4z64QaMKDE2jI+Pf9njjNh3mCMkJAQFZaNGjWRdRAIfffQR2vDatWvi4gqFxVCIGHB0cnJyNm3aVKZMGYmHAB24adOmGBpK3HKsAt0A+Qf6qVGjhtycwGKwLBkZGRcvXkRCf//9981xA/I1BnfQw6effoq0hT5X+W8qVaqE4UCFChWQJXEqvvnmmyavCD/Ewn18fFCXSJ+cg8WgoBjQ7KgIf/31V9Rt0rM2/hJnfvny5du3bz9//vwbN26giMSYNPNv4IOkpCSc57t27RoyZIiTkxM6pKxrjHBPrVq1Nm7cKPGosRgKEQNAP9y7dy+GjBIv5eHPypUrN3jw4MDAQBxQdNSX9Tf8u1o3u/7t27enTp2KAaWsi0h6WAyWRT9GQ0fEGSv9kYBXAroOekObNm0OHDiAnCLugARYDAqKQX9Wo2JDFpb1IBnAESxVqhSGh507d/bz81u8ePGWLVt27NiBPcKwccaMGd7e3u7u7qgtkIVl1QpY8ueff44RA+pIiU9RsxgKFwNAb0RpKD0tYMz35Zdfenh47Ny5Eyn7hY8Lo/9AGw8fPkRR6OnpiRMNDSvXCoDFYHFwqNA59J9nQr8UG97KwOARQ0g3N7clS5YgXyPzilsvARaDgmLQc+HChaFDh5YpU0bWneGn4Ggij6O/tWjRom3bti1btmzYsCEOEBrBhAU+HTGgZaS/W8NiKFIMcqfE0IMji1Hm9OnToYeTJ09evHjx5s2b169fv3z58tmzZ/ft24dBQEBAAI679BsYz8NiKA4wBrx37960adOqV69uwpsNlgbb88477zRq1AhdCl0BWytutzRYDIqLISUlBVkSaf2DDz4wrbdAAEhhyIN6kHaxRyaMHAGWg4Q4c+bMJ0+eSB8xsBiKFINKpZo7dy6KAFnHBUf27bff/uijj1BTtmvXrlevXkOGDMG5gEqiS5cutWvXrlChAroN9lTu44jPwmIoJjDUghsmTJiAvmXOAbMEKFErV668bNky9FRkRnGLJcNiUFwM2EE0DrZE1kTcFgJD2uHDh1+6dEn6bSfAYihSDJmZmefPn69Xr570zvYU/V0ljOdQ6JcuXRrHCDJAJ8c/KpJeWAzFB/rijRs3xo8fL3cyO4uin4Nlzpw5wcHBss78p7AYFBcDQN0GT6PKdHBweFUjCWSfMmXKdO7c+dChQ8nJybJ2kMVQpBjQFcPCwtCN0d/E31gG/cVAbA/6ksTtZzEUK+gK165dmzx5srOzMzwv9+6isqAmxYijcePGSOsRERGFT31TCCwGS4gBoMq8c+eOn58fTmlsT/FfgUQXRXbYtGlTXFycuE2SYTEUKQaQlpa2ffv2Nm3aWPT4om1dXFz69u37yy+/SHzflsVQ3GAkiObev38/BmKffvrpKznhAZyErNqwYcPNmzdHR0cj1Zqc11gMFhIDFgg3XL9+feLEicgySGrFU2iiQ6J7YNDQsWNHdI+kpKTCG+2FsBikiAE9OTExcebMmV9++SWWbIlUgHKzfPny2BI0b79+/VgM1gvG5gkJCUeOHBk7dixMjpyFg1c8esBasC5kPXTxoUOHnj59GtlZ7t1mI1gMFhIDwDIzMjJQN6xZs6ZRo0ZItZbuKlg4MtTXX389ZMiQAwcO4BihtcWtkQOLQYoYcHzRvLdv354yZcpXX3315ptvKntwMZIoV64cfHD58mX91FgsBqsGHQJV5I0bN5YuXfrDDz8gE+HEKAY3vPXWWzjnscY5c+ZcuHDBhJHg87AYLCcGPTA32gprwS588cUX0nOTXGCdUqVKoY5EjXLx4sXk5GRxC+TDYpAiBj05OTm3bt3y8/PDSaRsHqhYsWKvXr0OHTqEsg9uYDGUAJBHkIbi4uL27ds3YsQINzc3DBk++OADSzyFghP+nXfeQb5zd3f39fU9fvw4Eo3JNxWMYDFYWgwAGxYdHb1///5hw4ahysQwUNkMgv0tU6ZM9erVu3btigz4+PFjZCtz9ojFIF0MaOfs7OygoCC4QX/30cxrhq+//jo6fOXKlfv37//0wQEWQ0kCeSozMzM+Pv7MmTPTpk1r167dl19+iaOC8wSGMKd/IGvoH2Z/++23y5Yt26BBAwwDT548GRUVhV6I3CpugdmwGIpBDAB7ja6iUqm2bdvm5eWFJIWdwnbiKJtmCPxKf10RPQR1ZLdu3datW3f37t3U1FS0g5m7w2KQLgagd8ODBw9WrlzZsWNHSBrF/RtvvCH3yOpP+Y8++qhx48boljia6DP6Ps9iKJFkZGSEhIScP38eiWnKlCk9e/asVasW6nqT3YAzrVKlSm3bth0zZsymTZsCAwMfPnyYJnPWfimwGIpHDHqwhagyb968uWPHjgkTJrRo0QI5HeWgCf0EIw9UHsggQ4YMWbt2LZoURYn0d5sLh8UgSwwA/QeNHxERgTHi6tWre/XqhXMKGwx5i0ssCojkq6++wuBy8uTJx44dw6qffQCdxVBSQc8A6enpjx49OnLkyLJly0aPHv3LL7+0b9/e1dXVyckJHQU569NPP8X5/Cz4F3SI7777rkaNGnXr1m3ZsiVGf8ibs2fP3rlzJ0pUWAfJFAsX16QoSLWnTp2CzAYPHozSVQr447Nnz8qakelZsMawsDAMnOE8cYlFMWLECJxsUGPhjYAlX7t2bfz48dL3xd/fH/uSkpJioeZ9HqGX6PrJvXv3kONmzZqFzA7tNW3a1NnZuXLlyhUrVkSX+PDDD3F664EXS5cuXb58eYwVatasifKxQ4cOKDuglvXr1yNloGbVL1Zch9lgrDpy5EixjSSABr9165b4Y8nk5eXdv39/8eLF4lKKYujQoUuXLr1+/boJ11HPnTs3depU6R0DBfrp06flfqIZh0CtViclJR0/fnz+/Pn6I4vTv1q1ak/PfRQEOKDvv/8+Bkb4RxjI0dERdvz111+xhTjl0TGwg0ZHE6cMesvw4cPF7SuUYcOGoaHMucn0yrEdMTwPRhAYxF28eBFJEKPycePGId1jKNHDEPwLDiT+K3IEhn7oUlDL0xKSsXmgWOj/wIEDS5YsCQgIwImN8QRGjkgoeuCMTp06wQRQ6Zw5czZu3Ij6IDExUUETMJYAGeD27dtI6Mj4OPdxWHG+6wcBGP/99NNPKAIgYCjk0KFDUVFRShV8NoAtiwGZHebH2BDnMAyByu7JkydI+g8Mwb+oVCr8V/QM/Td8UELit3za2wkoB7OysjC+i4mJwcDw8ePH6BLBwcGwhR6M3/E/Q0JCQkND0UkSEhJQRObLn/6EKWZwCuPI4nhFREToDyuqXhRJOKAA5z7+Eec+kgNKk+erBHvGlsXAMAzDmACLgWEYhjGAxcAwDMMYwGJgGIZhDGAxMAzDMAawGBiGYRgDWAwMwzCMASwGhmEYxgAWA8MwDGMAi4FhGIYxgMXAMAzDGMBiYBiGYQxgMTAMwzAGsBgYhmEYA1gMDMMwjAEsBoZhGMYAFgPDMAxjAIuBYRiGMYDFwDAMwxjAYmAYhmEMYDEwDMMwz0D0/wOFy2P09daHwwAAAABJRU5ErkJggg==;" vertex="1" parent="UZ6RkZTlEQQABrXdxuR9-14">
          <mxGeometry x="20" y="15" width="64.56" height="55" as="geometry" />
        </mxCell>
        <mxCell id="UZ6RkZTlEQQABrXdxuR9-13" value="" style="group" vertex="1" connectable="0" parent="UZ6RkZTlEQQABrXdxuR9-14">
          <mxGeometry x="110" y="34" width="187.5" height="71" as="geometry" />
        </mxCell>
        <mxCell id="UZ6RkZTlEQQABrXdxuR9-3" value="" style="rounded=1;whiteSpace=wrap;html=1;fillColor=#CCCCCC;" vertex="1" parent="UZ6RkZTlEQQABrXdxuR9-13">
          <mxGeometry x="87.5" width="100" height="30" as="geometry" />
        </mxCell>
        <mxCell id="UZ6RkZTlEQQABrXdxuR9-4" value="" style="rounded=1;whiteSpace=wrap;html=1;fillColor=#CCCCCC;" vertex="1" parent="UZ6RkZTlEQQABrXdxuR9-13">
          <mxGeometry x="87.5" y="40" width="20" height="30" as="geometry" />
        </mxCell>
        <mxCell id="UZ6RkZTlEQQABrXdxuR9-5" value="" style="rounded=1;whiteSpace=wrap;html=1;fillColor=#CCCCCC;" vertex="1" parent="UZ6RkZTlEQQABrXdxuR9-13">
          <mxGeometry x="113.5" y="40" width="20" height="30" as="geometry" />
        </mxCell>
        <mxCell id="UZ6RkZTlEQQABrXdxuR9-6" value="" style="rounded=1;whiteSpace=wrap;html=1;fillColor=#CCCCCC;" vertex="1" parent="UZ6RkZTlEQQABrXdxuR9-13">
          <mxGeometry x="140.5" y="40" width="20" height="30" as="geometry" />
        </mxCell>
        <mxCell id="UZ6RkZTlEQQABrXdxuR9-7" value="" style="rounded=1;whiteSpace=wrap;html=1;fillColor=#CCCCCC;" vertex="1" parent="UZ6RkZTlEQQABrXdxuR9-13">
          <mxGeometry x="166.5" y="40" width="20" height="30" as="geometry" />
        </mxCell>
        <mxCell id="UZ6RkZTlEQQABrXdxuR9-8" value="Embeddings" style="text;strokeColor=none;align=center;fillColor=none;html=1;verticalAlign=middle;whiteSpace=wrap;rounded=0;" vertex="1" parent="UZ6RkZTlEQQABrXdxuR9-13">
          <mxGeometry x="7.5" y="41" width="60" height="30" as="geometry" />
        </mxCell>
        <mxCell id="UZ6RkZTlEQQABrXdxuR9-10" value="Documents" style="text;whiteSpace=wrap;html=1;" vertex="1" parent="UZ6RkZTlEQQABrXdxuR9-13">
          <mxGeometry y="4" width="75" height="20" as="geometry" />
        </mxCell>
        <mxCell id="UZ6RkZTlEQQABrXdxuR9-21" value="" style="group" vertex="1" connectable="0" parent="1">
          <mxGeometry x="60" y="360" width="310" height="198" as="geometry" />
        </mxCell>
        <mxCell id="UZ6RkZTlEQQABrXdxuR9-15" value="" style="rounded=1;whiteSpace=wrap;html=1;dashed=1;" vertex="1" parent="UZ6RkZTlEQQABrXdxuR9-21">
          <mxGeometry x="50" y="108" width="120" height="90" as="geometry" />
        </mxCell>
        <mxCell id="UZ6RkZTlEQQABrXdxuR9-16" value="&lt;b&gt;Indexing Service&lt;/b&gt;" style="text;strokeColor=none;align=center;fillColor=none;html=1;verticalAlign=middle;whiteSpace=wrap;rounded=0;" vertex="1" parent="UZ6RkZTlEQQABrXdxuR9-21">
          <mxGeometry x="53" y="113" width="60" height="30" as="geometry" />
        </mxCell>
        <mxCell id="UZ6RkZTlEQQABrXdxuR9-19" style="edgeStyle=orthogonalEdgeStyle;rounded=0;orthogonalLoop=1;jettySize=auto;html=1;endArrow=open;endFill=0;" edge="1" parent="UZ6RkZTlEQQABrXdxuR9-21" source="UZ6RkZTlEQQABrXdxuR9-17">
          <mxGeometry relative="1" as="geometry">
            <mxPoint x="115" y="110" as="targetPoint" />
          </mxGeometry>
        </mxCell>
        <mxCell id="UZ6RkZTlEQQABrXdxuR9-17" value="" style="rounded=1;whiteSpace=wrap;html=1;fillColor=#CCCCCC;" vertex="1" parent="UZ6RkZTlEQQABrXdxuR9-21">
          <mxGeometry x="95" y="31" width="40" height="40" as="geometry" />
        </mxCell>
        <mxCell id="UZ6RkZTlEQQABrXdxuR9-18" value="" style="rounded=1;whiteSpace=wrap;html=1;fillColor=#CCCCCC;" vertex="1" parent="UZ6RkZTlEQQABrXdxuR9-21">
          <mxGeometry x="75" y="21" width="45" height="40" as="geometry" />
        </mxCell>
        <mxCell id="UZ6RkZTlEQQABrXdxuR9-20" value="Documents" style="text;whiteSpace=wrap;html=1;" vertex="1" parent="UZ6RkZTlEQQABrXdxuR9-21">
          <mxGeometry y="31" width="75" height="20" as="geometry" />
        </mxCell>
        <mxCell id="UZ6RkZTlEQQABrXdxuR9-22" style="edgeStyle=orthogonalEdgeStyle;rounded=0;orthogonalLoop=1;jettySize=auto;html=1;entryX=0.25;entryY=0;entryDx=0;entryDy=0;endArrow=open;endFill=0;" edge="1" parent="1" source="UZ6RkZTlEQQABrXdxuR9-15" target="UZ6RkZTlEQQABrXdxuR9-2">
          <mxGeometry relative="1" as="geometry" />
        </mxCell>
        <mxCell id="UZ6RkZTlEQQABrXdxuR9-30" style="edgeStyle=orthogonalEdgeStyle;rounded=0;orthogonalLoop=1;jettySize=auto;html=1;exitX=0;exitY=0.5;exitDx=0;exitDy=0;endArrow=open;endFill=0;" edge="1" parent="1" source="UZ6RkZTlEQQABrXdxuR9-25">
          <mxGeometry relative="1" as="geometry">
            <mxPoint x="350" y="450" as="sourcePoint" />
            <mxPoint x="420" y="720" as="targetPoint" />
            <Array as="points">
              <mxPoint x="420" y="513" />
              <mxPoint x="420" y="720" />
            </Array>
          </mxGeometry>
        </mxCell>
        <mxCell id="UZ6RkZTlEQQABrXdxuR9-31" value="" style="group" vertex="1" connectable="0" parent="1">
          <mxGeometry x="480" y="340" width="145" height="218" as="geometry" />
        </mxCell>
        <mxCell id="UZ6RkZTlEQQABrXdxuR9-25" value="" style="rounded=1;whiteSpace=wrap;html=1;dashed=1;" vertex="1" parent="UZ6RkZTlEQQABrXdxuR9-31">
          <mxGeometry y="128" width="120" height="90" as="geometry" />
        </mxCell>
        <mxCell id="UZ6RkZTlEQQABrXdxuR9-26" value="&lt;b&gt;Rag Service&lt;/b&gt;" style="text;strokeColor=none;align=center;fillColor=none;html=1;verticalAlign=middle;whiteSpace=wrap;rounded=0;" vertex="1" parent="UZ6RkZTlEQQABrXdxuR9-31">
          <mxGeometry y="133" width="60" height="30" as="geometry" />
        </mxCell>
        <mxCell id="UZ6RkZTlEQQABrXdxuR9-28" style="edgeStyle=orthogonalEdgeStyle;rounded=0;orthogonalLoop=1;jettySize=auto;html=1;entryX=0.5;entryY=0;entryDx=0;entryDy=0;" edge="1" parent="UZ6RkZTlEQQABrXdxuR9-31" source="UZ6RkZTlEQQABrXdxuR9-27" target="UZ6RkZTlEQQABrXdxuR9-25">
          <mxGeometry relative="1" as="geometry" />
        </mxCell>
        <mxCell id="UZ6RkZTlEQQABrXdxuR9-27" value="" style="shape=actor;whiteSpace=wrap;html=1;fillColor=#66B2FF;" vertex="1" parent="UZ6RkZTlEQQABrXdxuR9-31">
          <mxGeometry x="40" y="20" width="40" height="60" as="geometry" />
        </mxCell>
        <mxCell id="UZ6RkZTlEQQABrXdxuR9-29" value="Query" style="text;whiteSpace=wrap;html=1;" vertex="1" parent="UZ6RkZTlEQQABrXdxuR9-31">
          <mxGeometry x="67" y="87" width="75" height="20" as="geometry" />
        </mxCell>
        <mxCell id="UZ6RkZTlEQQABrXdxuR9-33" style="edgeStyle=orthogonalEdgeStyle;rounded=0;orthogonalLoop=1;jettySize=auto;html=1;exitX=0.5;exitY=1;exitDx=0;exitDy=0;" edge="1" parent="UZ6RkZTlEQQABrXdxuR9-31" source="UZ6RkZTlEQQABrXdxuR9-29" target="UZ6RkZTlEQQABrXdxuR9-29">
          <mxGeometry relative="1" as="geometry" />
        </mxCell>
        <mxCell id="UZ6RkZTlEQQABrXdxuR9-32" value="Query via Embeddings" style="text;whiteSpace=wrap;html=1;" vertex="1" parent="1">
          <mxGeometry x="340" y="580" width="110" height="20" as="geometry" />
        </mxCell>
        <mxCell id="UZ6RkZTlEQQABrXdxuR9-39" style="edgeStyle=orthogonalEdgeStyle;rounded=0;orthogonalLoop=1;jettySize=auto;html=1;entryX=1;entryY=0.75;entryDx=0;entryDy=0;endArrow=open;endFill=0;" edge="1" parent="1" source="UZ6RkZTlEQQABrXdxuR9-34" target="UZ6RkZTlEQQABrXdxuR9-27">
          <mxGeometry relative="1" as="geometry">
            <Array as="points">
              <mxPoint x="660" y="405" />
            </Array>
          </mxGeometry>
        </mxCell>
        <mxCell id="UZ6RkZTlEQQABrXdxuR9-34" value="" style="rounded=1;whiteSpace=wrap;html=1;dashed=1;" vertex="1" parent="1">
          <mxGeometry x="600" y="620" width="140" height="90" as="geometry" />
        </mxCell>
        <mxCell id="UZ6RkZTlEQQABrXdxuR9-35" style="edgeStyle=orthogonalEdgeStyle;rounded=0;orthogonalLoop=1;jettySize=auto;html=1;entryX=0.5;entryY=1;entryDx=0;entryDy=0;endArrow=open;endFill=0;" edge="1" parent="1" source="UZ6RkZTlEQQABrXdxuR9-2" target="UZ6RkZTlEQQABrXdxuR9-34">
          <mxGeometry relative="1" as="geometry" />
        </mxCell>
        <mxCell id="UZ6RkZTlEQQABrXdxuR9-36" value="&lt;b&gt;LLM&lt;/b&gt;" style="text;whiteSpace=wrap;html=1;" vertex="1" parent="1">
          <mxGeometry x="653" y="654" width="38" height="19" as="geometry" />
        </mxCell>
        <mxCell id="UZ6RkZTlEQQABrXdxuR9-37" value="Context" style="text;whiteSpace=wrap;html=1;" vertex="1" parent="1">
          <mxGeometry x="680" y="730" width="75" height="20" as="geometry" />
        </mxCell>
        <mxCell id="UZ6RkZTlEQQABrXdxuR9-40" value="Response" style="text;whiteSpace=wrap;html=1;" vertex="1" parent="1">
          <mxGeometry x="670" y="510" width="75" height="20" as="geometry" />
        </mxCell>
        <mxCell id="UZ6RkZTlEQQABrXdxuR9-42" value="" style="group" vertex="1" connectable="0" parent="1">
          <mxGeometry x="110" y="650" width="170" height="39" as="geometry" />
        </mxCell>
        <mxCell id="UZ6RkZTlEQQABrXdxuR9-24" value="Embeddings" style="text;whiteSpace=wrap;html=1;" vertex="1" parent="UZ6RkZTlEQQABrXdxuR9-42">
          <mxGeometry x="60.000000000000014" y="6.5" width="110" height="20" as="geometry" />
        </mxCell>
        <mxCell id="UZ6RkZTlEQQABrXdxuR9-41" value="" style="shape=image;imageAspect=0;aspect=fixed;verticalLabelPosition=bottom;verticalAlign=top;image=data:image/png,iVBORw0KGgoAAAANSUhEUgAAAKsAAABxCAIAAAAlL8QHAAAAAXNSR0IArs4c6QAAAARnQU1BAACxjwv8YQUAAAAJcEhZcwAAEE0AABBNAWeMAeAAABolSURBVHhe7V2HVxTJun9/wbvnnbPpuskcQEQQDNf1btDdFQRJ0wOTh5yRMIAIihEVxVVRQUWSAQUMJAFBQBRQQARFRJSsgKIkySi+r6eKZhgYwNV7ZcLvfIczVOrqrl99obq6+3/eKyDfUDBA3qFggLxDwQB5h4IB8g4FA+Qdss+A3p6+mora/Iy78aFJUYdjYo9duRF/61HJ47bXbYODg7iQHEPGGZB3Pd/DYDN/hQ1dlWc0n4WEpszmLLOy+dUl1P90X28/LiqvkFkGvHj20s9xv/Y3BKHKpS/mEYu4NGWOkRKbpsSG35ACnNCfwzBW4xdm3cN15BKyyYCnZVXWqzbAkMNI0xaytb8iHNcLAn2CI/zPhvhFbrfZSyzgwvADCYANDFWz88EXoVZ/30B3Z3dfTx9qRE4ggwxorGviL7FFs5xQ5njQNtdV1uO8IfR09Zw+fJ6pYY40hO50uoOeG6HO0/mR0JtpwllpdcAz8F52SXtrO64gu5BBBuzbcBAGHoaWqWmWcj6tu6sbZ4wEuIHFeSW6M4xJrgjNBLYOQybDcBbT/k+38IBzb9o7cR1ZhKwxID/7Luh8GEVjVX7utXycOgpv375tqG20+9N1ePiVOPqzGHrTTQxmM4yUWYQKZgP4DS66G7vedOGaMgeZYgA49k7a7jD7DeczA72Ovx14izNGoqy4fL/LYSMlFm0hB0ID6982nNoSmZ2c87Sssr7qWUXp0+txWUc2nuCvtKHNZwMJoIzlb05PHlbi+rIF2WEABP2HtxwzUTclGbCA9e7dO5whApjK/oK/dL+iI53/5xcGIfsjert7cbYIwEZ0tHV4Er7EQtKdBJdCsM67UxY1gdQzoK21/crJBCddd91pdNDYZNy/gB227wzOHsLrly0xh66YrbSjLYCAkGOiZrrf8XDlo2qcLQG9Pb3Hd4QiiwCxw/mjsThDhiDdDGhraXdcI6Aps5FLjwScuIKMIlxCiJy026wlljCbCVXS7XfUca95XDsgwUaIAUyJv90h1L7Wl0bNjc04Q1YgxQyouP+UtcwChh/GBtS+s66nh8EW+G2sxiu7V47KwCTeaeuvM40gVDj6M03c1m/KiMtGWRRaXrUmhCYf3hiUe+0ORIk4VQQQTK6fToYM4DqE+kXiVFmBtDLgxfOXtn+4oPhN5zvi/LGLYA7uF5Yy1M0YGmblJRWoGAT0lqsdoYzZv+1ykm6DaUfpFG5nFlj+4kQuFSuxwYcQ6HmDM4jzRHDQ6ygYF2jHU9dXxpaMpJUBgV7BhnOZYPWNVUxTL6WjxIdFjxhq4gywWuME+j/hbDJKQYBoEPTENqs9Ol8SQCPDOUz2MkvSmiziaH1tdHJ3+PPqBlxUCHAzdb6lAwMctAQtza04VSYglQwoL3ms8wMZ9MPgRQddwqmSGQCegSgDWppbdpsfYC0FC8IhlDm8pTYpZ9KflFYe8T2h8x0ZJgAV+EttgQfUWhB4AwazmXBEmzXOoH5QomxA+hgw+G5wi+kuUv+r8vjqtu0iin1CBrS9bouPSNKfy0Deg/Fi/j63gxAmoMKAR8XlG1Z7QDr4/4bzWOar7O9m3kNBoOE8BQOmBlpftVmsJE273iyTxKgRun0cBlyJSLganerwuwBMPmIPtABq4EzghY62N6gwQldn942EWw7aAmgf/EeY+l7MbZEHzxlBqLmY56TtDh3ARWUC0seAJw8rucusYTDAYLe1jBgMSQyAwmQsMI8BQR384Khbma20p6vySYWvxOavsC3OuQ9RA6pCIfrEJYaaOVoRglrwF8TTwFfGthRIHwPu5ZSA0076gGp8nDSEcRgAAs68+SqHy6fiXze3dHZ0Xou97qzrsX4mOdH1fjTxNd1dcOMuqoUwOPge4oKQrZEsDQukM6DkfsFhGdtZJH0MuJt9D8aedAJWWeOkIYzDAIOZjOBdp/r7BlA6hUuh8UbzSPUO+kDrG9oOu72jd49VV9Su/9IYrQyC4Xjy4CnOkAlIHwMelTxmL7WEwYCJK3bvRxIDwOGPOX5Z0ty9k1mgO4OM9IAE4CXwVliH7jgt5u69evHaRXsjkIC2kGO3xrVnrFsJUgrpY0BDXZPpv+xgwHS+Jx4WP8KpQiAGgLEvzr2PUihPUGw9QBSlRWXa35GxpcVqe50f6KBdwPbrzWCA5yjKsPsFpSaLzaCY/mzGuWMXcKr0Q/oY0N/X76ztCcNMW8jewt357u3wPcCy4nJjZdJAwFT+y/1IaWFZe2vHJBlgMJf5qvF1dlKOp4mvIcQLqlyD2YzsxBxcSIgd1v40JdIltF7l3NkhI/cJpY8BgKykm6AAYCTAny/Jf4BTheQIDzi77nvyLgAp87jb7XbzV9lMhgEwsxuqm+Df7s7uW8m53BXWoAnSYjJRGYTGuqZ1X5PH5S63pgyNtEMqGQCAuJxcxF3I9TTY0vp6RExYVV6zy3w/uQdQCXjAJSNAZU5cRALOHoUHhQ9B+QMDnlc1opSGukbLX8m15PTYEQwA8FZaE+QNaNbNhDycJOWQVgY8Kn7M0jSH6Qija6Hh+Lx2xDI+KIOyonIB4T2kKnjm/3ZIuyI+nIC6ymeeJluAKJNkgK+lHxQ2msdKjkzDSVIOaWUA4EJwLLpfBwPM0bBKj8kavVqXdjnD7ndXw7ksMArABi/WVnAOgB/v3g1Wl9cE+gSvE94ZgkY+hAEckgERCgZ8bpzaG0luChKu9oCqN5zHclznfj0uC2cP4fXLlsTwVM5SS3DiQGHAj238PQcEgbzl4B+QW0tg7CfPAN4qG6gCDLhx8RZOknJIKwMgTttktI0cexWOo47AdDm5/QtmM0z0jSzfJ6WVA/0jFn+AB3ucA4wXmwrpQsZ75NRfxHP8Q5AUnao3kzEZBjTUNmp9bQQtMDXMSm4Pe6BSDWllQNebLldtLxgM3Wn0moq65qZXMUeusDQsQCvAROcus/K3OQQ2HpcWoiC7yHK1Eww/WI313xm7EV63ruYBUahYYEIG+NnvN1JiwUHNlzu0NA/fUZRqSCsDOjs6MQP+Sa8sq0KJLc2tvpa7jOaSygD8tXXfERdD4zrbO9tet+12DIAoEcYe0o0XmSaeGw4OJ8kACBnoKqTFAZLtFxzGqdIPaWVAT3evYJ0PjIf+HAa1RwihJO+Bn30AmAPggcE8pr2WG3elNXgJMPZMNYtwv7MQ1uOiQjwqeTwhA9pa2pz+cIcWQIUwVM1eNb1G6TIAKfYEt5rsAQbAMNuvc8VJIii7V85QMQOLAGVg6ut+T/fmb30zcisAoLen9+jW4zDYwIBXDXhcKQakxWYODpI7RbX+QSP9hsU8vdkmOVdvo2KyASlmwNXoazBsMCq639LHXKFrb+uIDrrkZrhpM2tnXlq+2DMkYBrOH4o1+7ed4RwmTG4TmNmN2LSDx2f5iyMMuf+Gg8c3hbE1LIFDcKB1PxLBW0P7ehU7RacGerp61/yvHlIDuy0PiN0nxBh8DwMmFhcA0q5krP+nMakhQD1Mozvouz2rek7dPKx+XMNfST59DC2jqU/y7Ht67Mm4sY8izZBiBgDiIhLBwMPwGMxhnj8c2983we4d8B5uJed50n0NZjPJez/zmBvpvlmJ4pH9nbRCiC3JgVcl/T5CieOp55uXfmfMJ9GkHdLNgM6OLoEe6Q+C0JTZ/lYHe7rHeOQDoaai1lXPi1AmwwTSMZzFvZWS1905xrPl+9wO0oTPn7OWWRzfHVpeXCHpEXQZgHQzAFBR+pSjakVbQHp8hnNYFr86xIclVzx42vKqtetN95v2zsb6pqKbxYc8jur8kyDHHsqscgjdEznmA6OABwUPdYTbBZiq5tUVtThVdiH1DAA8q25w+F2A3H6I1kBvc5ZZWaxwtF7mbLV0g9kKexN1Plo/BgZE7DsHrr4kfQ50sVntTJp/Fe4W051vRTYfyCpkgQEAiNd32vqzllgYLRBuBhfaBSxCNx5Efx4jJTZN0l4xSG969sLbZDtp+KGFBfyXDTL1XIAkyAgDEJ4+rIo+csmd4WO4gKX9JU37K9q6aYSxGt9gLvmwB6HCsVvrmnrx+ujQABAXkWS9xtlI+MoI+iJeRtwNnCHrkCkGUOjp6mmsa6qvqoegHwKEc8ExtLmkZweiO53OUDcLCzhzMyG35NaDm4m5J/eGg3uoN9OEZIlwO0nI7giZdPvHhGwyYDSuxWTQVcBFQL4C+ZIR/ekMUmYwKMMBtp+92PJa7HXRvYcyD3lhAKCzvXOHrT/EAnTyySFyqQeL8DdtJme7zW7Ze0HEhJAjBgBgctdU1CaeTQn2Cd1jf8DPLmCv08FjXiFJ51IrH1XLj+YXhXwxQIHRUDBA3qFggLxDwQB5h4IB8g4FA+QdCgbIOxQMkHcoGCDvUDBA3qFggLxDwQB5x6dhwODgYENtY0n+g9tZBSAF2XcrSp+2ycFnmmQAH8uA3p6+qKBorS9out/SjZTZhsosLPOYWl/RBMbepUVluKg8oa+3fwvhZ7yYj8RgFjN9rPdXiCHxVAqxgEvVGl8IZd75APIjeR+Jv8+AjrY3p/edZy41M1rINllqOqbQl/D15zK8WFtBK+Bq8oHGuiaL1Y7UdTDW4FutcRwYGGN3migSwpOJxVyq1vhCqHHPB34+BgDH7bRd6Wo8sW4Za/LpS0YlavCh5JWwBEm7NGUP2Qk5tJETQ2+Wyf2CUpwtAQkRKZNnAFznC5+LAW2v29yNfYZHWtMUztZBR7DDYt/hTUFHfE8cEBzx4ezg/2xDVx9mA2OpWU6qTD1zOQ4EDB/jJXw4a9YKC5gA8AMu17GtIeNvQsmOzxHQfDyNfSlBdZFAg16MrVSWB7H56ulruOZH4O8wICowdpiqmqaEOjclJr2luXWgfwDNcvjb3dVT87jWm7cdlBU+AU2+0Vx27dM61IgMo7qiRnemMXnKGvxAryDwitAVcDXyGt877u/rf9PeKSqECgfVBTGYy+zs6BLN/STPsH4wA0ABiOo3hoZZfqZEGz/Q/9bPYR+lCeCKBAgCZe/hS1EA+4O2hRDolDVNbybnHvI5iiYMnH558Ye9hZCmPMwA/TlMnPpJ8cEMOLb9BKGKu0VbxI48GDX+zlpgjIvBRuo0LNc4vnw+YjcmuBSUUI5CX09fUW7x5fD4c8ei488klhWXT96HAG2Uf6Pw0lDdopzi8b4YSj5cPNwBlAZnVPu0PuVSWvTJS1FBMTlptzs7JvvhWfLzZ1ru+HwXm71seFlf9cxgPhP+JVS5x7afxOUmhynHgO7ObvYiS6pPxEIuzhgXpNUYUgM0FXZRdjHOEH4sYM0/9EC/geh8S2+oburp7s24coO/ykZvtglMHVIWcXV/pHNWWqbGXu8a60FPhHfvBksLH+1y3KcznY4/JSCsqzfHRHc6/ejWkzASo2l0dPsJnW/JV8qCp2an4wJjX1HyZCPbV3cGHWIc1AFobd13RFjAadHvmUhCcW4JeDxwpmD43Rk+kDL4btDZ0AP0AdhB0Oqj32IxDqYcA+oq61lLLVCH4AwDPAJxxrh4UPjQYB45CUDggkb8dRZnvH9f9bhG50cCZ6lwXje1HN16glDhwsVCiZRACrhCHoSv6EdhKIDOCNx8nL3MUtTiQA8pT4pYxDH92S4pKlVMY53cFw5dQuXdWd4luQ+4/7IednJFBDSfy58bxT5IMhph+8+iBmHe384sIJMG3x/bHIJ6YqjESo75gBcRTjkGFN4sYi4zRx2C84wJuoIzxgWM2Z9fGaJadA2+j+V2nDGSASAn/cPhwpGDrcFnLbdgL7WA36LjQdfgbTLeJvY9EJjZkX9FgUOKypB1NSw9WVt2Ou71YPiQr6IfasFY07QkD792HIFiAJTxNt/uY7aDvoQ8OhKyoiY+NFlGnfeXx5Fx/HmI+LkrrUj6apqylpn39WCzkpmQjUIDEC+TbRO+54DClGNAZnw2dUVgTiRGpuCMcQG2Y+03RqgWXFYXwhNnjGIAXH0YD2dDz/iwpHu5JSX5D7ISbsFFp4wIWUaNf/NqLq4vRH3lM6Y65iVtIefYtpCXDdjVAHI8r2kI8g0BHUDW1eDzVtiIOuQUA0AgcoMhhx4e2Xwi7lRifHhyiF8k9ycr0ZjWcrVjQy1+4dRoZCfn6M9hQDGoEugdhFPfv2969oJQwkcx/8UBnAycMRGmHANSLqRT8wkYkHxmUgqtt7tXaxoN1YLr62QgwBmjGAD0goBYTNPCKEYdiRFV7270jThPCC8ejpvh7ya+L04VAbTga+mHLAt4BldE3jItygAQ7irryrIRHyOGztuvd6MKGM5j5V8bO/aBozjreVI9yYy7iTOEcDfxRpeOpsK5flH8xaeSMPUYEP2fZQC4CxWlY3zDpbur236tG7q4IOumES+GZnlz46u1X2AFA10qzhmh5CkknknBY6PJ9zLZSkXSogyAH5EHosBxQ1kUrp6/RgytfoIuuXwqHmeMRFV5NXuZFSpm+pNtzZMRKx951+8gZwgu4GbzHTh1IsgXA6Dlrba7cMYo5KTfNlLG6xAGC5jZKfjbDxD4wb8onf0vC7F3BVK4m1NsInTRQRy1BBCjonRRBkDIUPV4jK+R1z6tM5qPD02ocUP2RuCMkUiMSKEUlbOOp5ixBw3BXmGBbCgc6FnNc5wxLuSLAeT0kvwVgLZXbRAfopIQpyVewC5Icsw12tD6hNlvdvcLSiFgGS3p8VmUL2an5Uo5CqIM0PqGNmag0dLcun4GPvQ4DNhp548OARHvpbAx9AQ4NIgixGLO0cktDEw5BmTE3RD1BD8tA4yUWSmxEhuEsdGfSzpZZMmF7PizSSg9MSqFYgAIS8OCpT6GMDXMqZ7brnV5MfR+kE/FgM6OTv3puHvAVLEPISJkxGVT88d8lQOlh8bBlGPAncxC5tKhaFCVe/mkxCkriraW9rVfD8cCG3lbcMYHMeDFpBgwGflPMCB0/2nUDfAzXAgP8GZGS2ZiNu8nG9QOc7lFQdbEd8ynHAOePKxkLcVrghChBW0PwRnj4unDyvUzyDslZC017vHdYTjjUzMA6KX9FbH2/4zGF5aGZWM9dhc+CQNAAdCmcygdw1puzv/ZdrTwVuHhBwFzEOI3tjURxZRjQEdbB1sdu7twwta/O03mNk9ceCJcOFQLYqGs+OEwScwPSBB55bcYXjx7KcqAhKirKD3pQirFAIs1Ds2NzaLr/JLk3ZDD/0kYcPt6AbEYq/fJiqap1e+OEy4NTTkGgEPrZ7+fMmYG85mpF0e813s0erp7N5vupE7D9Bc70U/7izIAmt3l5I8zRiHr6k3qNquhEhP+Rek5aXlUOvcnq6b6Fyh9kvh4BsA1CfYNBfWDC6hzjVTY4whVEkKYvIx83IoETDkGACofVRnMxdEXKUqmNY8l3vIfGHibdDbVcD4eIbCRW013i67pijIAZN33RH3VGGESVIEZQ107nR+IhrrhN8Hr/jBkYhZxSvMlbkuEQFFsORnw8QwY6B9w0sM3AyF3u+2eS+Hx44grsRGdCDDejfAa/5WFU5EBgEMex8ANRN2Ck7H/TQDRNs4TQdebruNbwtByLBKd74mikSXFGEDeNeDtaB+5jeLd23en95+n2gEa2f7hgvOEtwQhvoeKZHV1noDwHugfwzDdzy81/9V+l82+6scjXhP68QwoL6lAN39BdGcawxnhDAlIv5hFHZFQ5o1fnlg4JRlQV/XM6rcNaJEVd24+w8VwY/rlzIeF5dVlNXdv3AsNOE3eoh06VRBChRN24AxuYghiDADrCJeYvcLiZkpe8/NX4P2VFZX7mO+gLjEITYl9M2HEfYGainqD2bgAVIe4vOVlK5hY8FH6evvaWzvSr2SSBNIk+frbF+vv3hpm4ccyYPC9J3sLMovQuOXvjjhdMqrKq01/tkOtQZX4COzSAkpu3w/2Czm+J5QS6nYXCF2NJ5oVvPtUfmYhrvkR+DsMADwofGj9xwa4HMP9W8KHq6w/hwEifHP3MHlBgA3BO8f49LcoAyC42GnvD20Ct8ivgC3iwDnD2FNuBwik+Fr4iX3xFdTAqT0RtCElAfrJ5k9nP9sAf7tD2y33Wv+5gSSQ0FGHMkHbTokq3o9kAFgWna9x/6Hx+NPDwykJXW+63WmbURVgwE4bf/AkUFZ86FVDJRb0hxJUjBLRLJoKO+pgLKr4MfibDAC0vmp1WCOgq464fzpa4CT1ZzGSolNxtZEQZQBEg1kJ2RF7zsHwU9VFhVjEdVjv1j+0k0cMB72P6M0yEdVMI0STjCACBIFi7vdkGTB9bAZEH79ETQM49PMaibcNRRF56CxVC06qsx0T+sP2Cqt/vr3CFMCxAgW7z/mw+Wp7IC8IBHswFWgL2eDoQhfdTXzC95ytKpdo6sQYkBKbBm0mRCYL6N5GqMGFHJjBoFE8WVsuBsePduVEced64X5X6IyD4QIWdIDsEvxdwIIYYbfDgYz4G6PdrrNHL9hquzisF4Dwl9uMuU4HiRYrHVAZW23X80F45kFUedDjKEoH2e0UMMnPUdc+qTP/2R7Vslq9IX4oss24eMNWC3dmQrFb5xofNrHKmRAfxQCEt2/f9nT1PK9uzE27nRiVcjEsPj0u8+HdR22v2+EaUSpuTIxmAEqHii/qX95Kzc1IyC65/QAcApi74zeFgDrTVPei6FZxVtLN/KzC+spn3V09ktYt+vsHgFVYunvHPAQkDpfp6R1+LbFwjyGVPmFwT4FssHu4QaoidJJKnIxM+AjKZPAJGPAxkMQABf5rUDBA3qFggLxDwQB5x2dmQGV59dppRijA1Ztj8kE7qRX4JPjMDGh91Xbm4IXLIfEg0ccuVZWPsUlLgf8oPjMDFPjsUDBA3qFggLxDwQB5h4IB8g4FA+QdCgbIOxQMkHcoGCDvUDBA3qFggLxDwQB5h4IB8g4FA+QdCgbIOxQMkG+8f///JmV1NJ9BT0oAAAAASUVORK5CYII=;" vertex="1" parent="UZ6RkZTlEQQABrXdxuR9-42">
          <mxGeometry width="59.02" height="39" as="geometry" />
        </mxCell>
        <mxCell id="UZ6RkZTlEQQABrXdxuR9-43" value="" style="shape=image;imageAspect=0;aspect=fixed;verticalLabelPosition=bottom;verticalAlign=top;image=data:image/png,iVBORw0KGgoAAAANSUhEUgAAAKsAAABxCAIAAAAlL8QHAAAAAXNSR0IArs4c6QAAAARnQU1BAACxjwv8YQUAAAAJcEhZcwAAEE0AABBNAWeMAeAAABolSURBVHhe7V2HVxTJun9/wbvnnbPpuskcQEQQDNf1btDdFQRJ0wOTh5yRMIAIihEVxVVRQUWSAQUMJAFBQBRQQARFRJSsgKIkySi+r6eKZhgYwNV7ZcLvfIczVOrqrl99obq6+3/eKyDfUDBA3qFggLxDwQB5h4IB8g4FA+Qdss+A3p6+mora/Iy78aFJUYdjYo9duRF/61HJ47bXbYODg7iQHEPGGZB3Pd/DYDN/hQ1dlWc0n4WEpszmLLOy+dUl1P90X28/LiqvkFkGvHj20s9xv/Y3BKHKpS/mEYu4NGWOkRKbpsSG35ACnNCfwzBW4xdm3cN15BKyyYCnZVXWqzbAkMNI0xaytb8iHNcLAn2CI/zPhvhFbrfZSyzgwvADCYANDFWz88EXoVZ/30B3Z3dfTx9qRE4ggwxorGviL7FFs5xQ5njQNtdV1uO8IfR09Zw+fJ6pYY40hO50uoOeG6HO0/mR0JtpwllpdcAz8F52SXtrO64gu5BBBuzbcBAGHoaWqWmWcj6tu6sbZ4wEuIHFeSW6M4xJrgjNBLYOQybDcBbT/k+38IBzb9o7cR1ZhKwxID/7Luh8GEVjVX7utXycOgpv375tqG20+9N1ePiVOPqzGHrTTQxmM4yUWYQKZgP4DS66G7vedOGaMgeZYgA49k7a7jD7DeczA72Ovx14izNGoqy4fL/LYSMlFm0hB0ID6982nNoSmZ2c87Sssr7qWUXp0+txWUc2nuCvtKHNZwMJoIzlb05PHlbi+rIF2WEABP2HtxwzUTclGbCA9e7dO5whApjK/oK/dL+iI53/5xcGIfsjert7cbYIwEZ0tHV4Er7EQtKdBJdCsM67UxY1gdQzoK21/crJBCddd91pdNDYZNy/gB227wzOHsLrly0xh66YrbSjLYCAkGOiZrrf8XDlo2qcLQG9Pb3Hd4QiiwCxw/mjsThDhiDdDGhraXdcI6Aps5FLjwScuIKMIlxCiJy026wlljCbCVXS7XfUca95XDsgwUaIAUyJv90h1L7Wl0bNjc04Q1YgxQyouP+UtcwChh/GBtS+s66nh8EW+G2sxiu7V47KwCTeaeuvM40gVDj6M03c1m/KiMtGWRRaXrUmhCYf3hiUe+0ORIk4VQQQTK6fToYM4DqE+kXiVFmBtDLgxfOXtn+4oPhN5zvi/LGLYA7uF5Yy1M0YGmblJRWoGAT0lqsdoYzZv+1ykm6DaUfpFG5nFlj+4kQuFSuxwYcQ6HmDM4jzRHDQ6ygYF2jHU9dXxpaMpJUBgV7BhnOZYPWNVUxTL6WjxIdFjxhq4gywWuME+j/hbDJKQYBoEPTENqs9Ol8SQCPDOUz2MkvSmiziaH1tdHJ3+PPqBlxUCHAzdb6lAwMctAQtza04VSYglQwoL3ms8wMZ9MPgRQddwqmSGQCegSgDWppbdpsfYC0FC8IhlDm8pTYpZ9KflFYe8T2h8x0ZJgAV+EttgQfUWhB4AwazmXBEmzXOoH5QomxA+hgw+G5wi+kuUv+r8vjqtu0iin1CBrS9bouPSNKfy0Deg/Fi/j63gxAmoMKAR8XlG1Z7QDr4/4bzWOar7O9m3kNBoOE8BQOmBlpftVmsJE273iyTxKgRun0cBlyJSLganerwuwBMPmIPtABq4EzghY62N6gwQldn942EWw7aAmgf/EeY+l7MbZEHzxlBqLmY56TtDh3ARWUC0seAJw8rucusYTDAYLe1jBgMSQyAwmQsMI8BQR384Khbma20p6vySYWvxOavsC3OuQ9RA6pCIfrEJYaaOVoRglrwF8TTwFfGthRIHwPu5ZSA0076gGp8nDSEcRgAAs68+SqHy6fiXze3dHZ0Xou97qzrsX4mOdH1fjTxNd1dcOMuqoUwOPge4oKQrZEsDQukM6DkfsFhGdtZJH0MuJt9D8aedAJWWeOkIYzDAIOZjOBdp/r7BlA6hUuh8UbzSPUO+kDrG9oOu72jd49VV9Su/9IYrQyC4Xjy4CnOkAlIHwMelTxmL7WEwYCJK3bvRxIDwOGPOX5Z0ty9k1mgO4OM9IAE4CXwVliH7jgt5u69evHaRXsjkIC2kGO3xrVnrFsJUgrpY0BDXZPpv+xgwHS+Jx4WP8KpQiAGgLEvzr2PUihPUGw9QBSlRWXa35GxpcVqe50f6KBdwPbrzWCA5yjKsPsFpSaLzaCY/mzGuWMXcKr0Q/oY0N/X76ztCcNMW8jewt357u3wPcCy4nJjZdJAwFT+y/1IaWFZe2vHJBlgMJf5qvF1dlKOp4mvIcQLqlyD2YzsxBxcSIgd1v40JdIltF7l3NkhI/cJpY8BgKykm6AAYCTAny/Jf4BTheQIDzi77nvyLgAp87jb7XbzV9lMhgEwsxuqm+Df7s7uW8m53BXWoAnSYjJRGYTGuqZ1X5PH5S63pgyNtEMqGQCAuJxcxF3I9TTY0vp6RExYVV6zy3w/uQdQCXjAJSNAZU5cRALOHoUHhQ9B+QMDnlc1opSGukbLX8m15PTYEQwA8FZaE+QNaNbNhDycJOWQVgY8Kn7M0jSH6Qija6Hh+Lx2xDI+KIOyonIB4T2kKnjm/3ZIuyI+nIC6ymeeJluAKJNkgK+lHxQ2msdKjkzDSVIOaWUA4EJwLLpfBwPM0bBKj8kavVqXdjnD7ndXw7ksMArABi/WVnAOgB/v3g1Wl9cE+gSvE94ZgkY+hAEckgERCgZ8bpzaG0luChKu9oCqN5zHclznfj0uC2cP4fXLlsTwVM5SS3DiQGHAj238PQcEgbzl4B+QW0tg7CfPAN4qG6gCDLhx8RZOknJIKwMgTttktI0cexWOo47AdDm5/QtmM0z0jSzfJ6WVA/0jFn+AB3ucA4wXmwrpQsZ75NRfxHP8Q5AUnao3kzEZBjTUNmp9bQQtMDXMSm4Pe6BSDWllQNebLldtLxgM3Wn0moq65qZXMUeusDQsQCvAROcus/K3OQQ2HpcWoiC7yHK1Eww/WI313xm7EV63ruYBUahYYEIG+NnvN1JiwUHNlzu0NA/fUZRqSCsDOjs6MQP+Sa8sq0KJLc2tvpa7jOaSygD8tXXfERdD4zrbO9tet+12DIAoEcYe0o0XmSaeGw4OJ8kACBnoKqTFAZLtFxzGqdIPaWVAT3evYJ0PjIf+HAa1RwihJO+Bn30AmAPggcE8pr2WG3elNXgJMPZMNYtwv7MQ1uOiQjwqeTwhA9pa2pz+cIcWQIUwVM1eNb1G6TIAKfYEt5rsAQbAMNuvc8VJIii7V85QMQOLAGVg6ut+T/fmb30zcisAoLen9+jW4zDYwIBXDXhcKQakxWYODpI7RbX+QSP9hsU8vdkmOVdvo2KyASlmwNXoazBsMCq639LHXKFrb+uIDrrkZrhpM2tnXlq+2DMkYBrOH4o1+7ed4RwmTG4TmNmN2LSDx2f5iyMMuf+Gg8c3hbE1LIFDcKB1PxLBW0P7ehU7RacGerp61/yvHlIDuy0PiN0nxBh8DwMmFhcA0q5krP+nMakhQD1Mozvouz2rek7dPKx+XMNfST59DC2jqU/y7Ht67Mm4sY8izZBiBgDiIhLBwMPwGMxhnj8c2983we4d8B5uJed50n0NZjPJez/zmBvpvlmJ4pH9nbRCiC3JgVcl/T5CieOp55uXfmfMJ9GkHdLNgM6OLoEe6Q+C0JTZ/lYHe7rHeOQDoaai1lXPi1AmwwTSMZzFvZWS1905xrPl+9wO0oTPn7OWWRzfHVpeXCHpEXQZgHQzAFBR+pSjakVbQHp8hnNYFr86xIclVzx42vKqtetN95v2zsb6pqKbxYc8jur8kyDHHsqscgjdEznmA6OABwUPdYTbBZiq5tUVtThVdiH1DAA8q25w+F2A3H6I1kBvc5ZZWaxwtF7mbLV0g9kKexN1Plo/BgZE7DsHrr4kfQ50sVntTJp/Fe4W051vRTYfyCpkgQEAiNd32vqzllgYLRBuBhfaBSxCNx5Efx4jJTZN0l4xSG969sLbZDtp+KGFBfyXDTL1XIAkyAgDEJ4+rIo+csmd4WO4gKX9JU37K9q6aYSxGt9gLvmwB6HCsVvrmnrx+ujQABAXkWS9xtlI+MoI+iJeRtwNnCHrkCkGUOjp6mmsa6qvqoegHwKEc8ExtLmkZweiO53OUDcLCzhzMyG35NaDm4m5J/eGg3uoN9OEZIlwO0nI7giZdPvHhGwyYDSuxWTQVcBFQL4C+ZIR/ekMUmYwKMMBtp+92PJa7HXRvYcyD3lhAKCzvXOHrT/EAnTyySFyqQeL8DdtJme7zW7Ze0HEhJAjBgBgctdU1CaeTQn2Cd1jf8DPLmCv08FjXiFJ51IrH1XLj+YXhXwxQIHRUDBA3qFggLxDwQB5h4IB8g4FA+QdCgbIOxQMkHcoGCDvUDBA3qFggLxDwQB5x6dhwODgYENtY0n+g9tZBSAF2XcrSp+2ycFnmmQAH8uA3p6+qKBorS9out/SjZTZhsosLPOYWl/RBMbepUVluKg8oa+3fwvhZ7yYj8RgFjN9rPdXiCHxVAqxgEvVGl8IZd75APIjeR+Jv8+AjrY3p/edZy41M1rINllqOqbQl/D15zK8WFtBK+Bq8oHGuiaL1Y7UdTDW4FutcRwYGGN3migSwpOJxVyq1vhCqHHPB34+BgDH7bRd6Wo8sW4Za/LpS0YlavCh5JWwBEm7NGUP2Qk5tJETQ2+Wyf2CUpwtAQkRKZNnAFznC5+LAW2v29yNfYZHWtMUztZBR7DDYt/hTUFHfE8cEBzx4ezg/2xDVx9mA2OpWU6qTD1zOQ4EDB/jJXw4a9YKC5gA8AMu17GtIeNvQsmOzxHQfDyNfSlBdZFAg16MrVSWB7H56ulruOZH4O8wICowdpiqmqaEOjclJr2luXWgfwDNcvjb3dVT87jWm7cdlBU+AU2+0Vx27dM61IgMo7qiRnemMXnKGvxAryDwitAVcDXyGt877u/rf9PeKSqECgfVBTGYy+zs6BLN/STPsH4wA0ABiOo3hoZZfqZEGz/Q/9bPYR+lCeCKBAgCZe/hS1EA+4O2hRDolDVNbybnHvI5iiYMnH558Ye9hZCmPMwA/TlMnPpJ8cEMOLb9BKGKu0VbxI48GDX+zlpgjIvBRuo0LNc4vnw+YjcmuBSUUI5CX09fUW7x5fD4c8ei488klhWXT96HAG2Uf6Pw0lDdopzi8b4YSj5cPNwBlAZnVPu0PuVSWvTJS1FBMTlptzs7JvvhWfLzZ1ru+HwXm71seFlf9cxgPhP+JVS5x7afxOUmhynHgO7ObvYiS6pPxEIuzhgXpNUYUgM0FXZRdjHOEH4sYM0/9EC/geh8S2+oburp7s24coO/ykZvtglMHVIWcXV/pHNWWqbGXu8a60FPhHfvBksLH+1y3KcznY4/JSCsqzfHRHc6/ejWkzASo2l0dPsJnW/JV8qCp2an4wJjX1HyZCPbV3cGHWIc1AFobd13RFjAadHvmUhCcW4JeDxwpmD43Rk+kDL4btDZ0AP0AdhB0Oqj32IxDqYcA+oq61lLLVCH4AwDPAJxxrh4UPjQYB45CUDggkb8dRZnvH9f9bhG50cCZ6lwXje1HN16glDhwsVCiZRACrhCHoSv6EdhKIDOCNx8nL3MUtTiQA8pT4pYxDH92S4pKlVMY53cFw5dQuXdWd4luQ+4/7IednJFBDSfy58bxT5IMhph+8+iBmHe384sIJMG3x/bHIJ6YqjESo75gBcRTjkGFN4sYi4zRx2C84wJuoIzxgWM2Z9fGaJadA2+j+V2nDGSASAn/cPhwpGDrcFnLbdgL7WA36LjQdfgbTLeJvY9EJjZkX9FgUOKypB1NSw9WVt2Ou71YPiQr6IfasFY07QkD792HIFiAJTxNt/uY7aDvoQ8OhKyoiY+NFlGnfeXx5Fx/HmI+LkrrUj6apqylpn39WCzkpmQjUIDEC+TbRO+54DClGNAZnw2dUVgTiRGpuCMcQG2Y+03RqgWXFYXwhNnjGIAXH0YD2dDz/iwpHu5JSX5D7ISbsFFp4wIWUaNf/NqLq4vRH3lM6Y65iVtIefYtpCXDdjVAHI8r2kI8g0BHUDW1eDzVtiIOuQUA0AgcoMhhx4e2Xwi7lRifHhyiF8k9ycr0ZjWcrVjQy1+4dRoZCfn6M9hQDGoEugdhFPfv2969oJQwkcx/8UBnAycMRGmHANSLqRT8wkYkHxmUgqtt7tXaxoN1YLr62QgwBmjGAD0goBYTNPCKEYdiRFV7270jThPCC8ejpvh7ya+L04VAbTga+mHLAt4BldE3jItygAQ7irryrIRHyOGztuvd6MKGM5j5V8bO/aBozjreVI9yYy7iTOEcDfxRpeOpsK5flH8xaeSMPUYEP2fZQC4CxWlY3zDpbur236tG7q4IOumES+GZnlz46u1X2AFA10qzhmh5CkknknBY6PJ9zLZSkXSogyAH5EHosBxQ1kUrp6/RgytfoIuuXwqHmeMRFV5NXuZFSpm+pNtzZMRKx951+8gZwgu4GbzHTh1IsgXA6Dlrba7cMYo5KTfNlLG6xAGC5jZKfjbDxD4wb8onf0vC7F3BVK4m1NsInTRQRy1BBCjonRRBkDIUPV4jK+R1z6tM5qPD02ocUP2RuCMkUiMSKEUlbOOp5ixBw3BXmGBbCgc6FnNc5wxLuSLAeT0kvwVgLZXbRAfopIQpyVewC5Icsw12tD6hNlvdvcLSiFgGS3p8VmUL2an5Uo5CqIM0PqGNmag0dLcun4GPvQ4DNhp548OARHvpbAx9AQ4NIgixGLO0cktDEw5BmTE3RD1BD8tA4yUWSmxEhuEsdGfSzpZZMmF7PizSSg9MSqFYgAIS8OCpT6GMDXMqZ7brnV5MfR+kE/FgM6OTv3puHvAVLEPISJkxGVT88d8lQOlh8bBlGPAncxC5tKhaFCVe/mkxCkriraW9rVfD8cCG3lbcMYHMeDFpBgwGflPMCB0/2nUDfAzXAgP8GZGS2ZiNu8nG9QOc7lFQdbEd8ynHAOePKxkLcVrghChBW0PwRnj4unDyvUzyDslZC017vHdYTjjUzMA6KX9FbH2/4zGF5aGZWM9dhc+CQNAAdCmcygdw1puzv/ZdrTwVuHhBwFzEOI3tjURxZRjQEdbB1sdu7twwta/O03mNk9ceCJcOFQLYqGs+OEwScwPSBB55bcYXjx7KcqAhKirKD3pQirFAIs1Ds2NzaLr/JLk3ZDD/0kYcPt6AbEYq/fJiqap1e+OEy4NTTkGgEPrZ7+fMmYG85mpF0e813s0erp7N5vupE7D9Bc70U/7izIAmt3l5I8zRiHr6k3qNquhEhP+Rek5aXlUOvcnq6b6Fyh9kvh4BsA1CfYNBfWDC6hzjVTY4whVEkKYvIx83IoETDkGACofVRnMxdEXKUqmNY8l3vIfGHibdDbVcD4eIbCRW013i67pijIAZN33RH3VGGESVIEZQ107nR+IhrrhN8Hr/jBkYhZxSvMlbkuEQFFsORnw8QwY6B9w0sM3AyF3u+2eS+Hx44grsRGdCDDejfAa/5WFU5EBgEMex8ANRN2Ck7H/TQDRNs4TQdebruNbwtByLBKd74mikSXFGEDeNeDtaB+5jeLd23en95+n2gEa2f7hgvOEtwQhvoeKZHV1noDwHugfwzDdzy81/9V+l82+6scjXhP68QwoL6lAN39BdGcawxnhDAlIv5hFHZFQ5o1fnlg4JRlQV/XM6rcNaJEVd24+w8VwY/rlzIeF5dVlNXdv3AsNOE3eoh06VRBChRN24AxuYghiDADrCJeYvcLiZkpe8/NX4P2VFZX7mO+gLjEITYl9M2HEfYGainqD2bgAVIe4vOVlK5hY8FH6evvaWzvSr2SSBNIk+frbF+vv3hpm4ccyYPC9J3sLMovQuOXvjjhdMqrKq01/tkOtQZX4COzSAkpu3w/2Czm+J5QS6nYXCF2NJ5oVvPtUfmYhrvkR+DsMADwofGj9xwa4HMP9W8KHq6w/hwEifHP3MHlBgA3BO8f49LcoAyC42GnvD20Ct8ivgC3iwDnD2FNuBwik+Fr4iX3xFdTAqT0RtCElAfrJ5k9nP9sAf7tD2y33Wv+5gSSQ0FGHMkHbTokq3o9kAFgWna9x/6Hx+NPDwykJXW+63WmbURVgwE4bf/AkUFZ86FVDJRb0hxJUjBLRLJoKO+pgLKr4MfibDAC0vmp1WCOgq464fzpa4CT1ZzGSolNxtZEQZQBEg1kJ2RF7zsHwU9VFhVjEdVjv1j+0k0cMB72P6M0yEdVMI0STjCACBIFi7vdkGTB9bAZEH79ETQM49PMaibcNRRF56CxVC06qsx0T+sP2Cqt/vr3CFMCxAgW7z/mw+Wp7IC8IBHswFWgL2eDoQhfdTXzC95ytKpdo6sQYkBKbBm0mRCYL6N5GqMGFHJjBoFE8WVsuBsePduVEced64X5X6IyD4QIWdIDsEvxdwIIYYbfDgYz4G6PdrrNHL9hquzisF4Dwl9uMuU4HiRYrHVAZW23X80F45kFUedDjKEoH2e0UMMnPUdc+qTP/2R7Vslq9IX4oss24eMNWC3dmQrFb5xofNrHKmRAfxQCEt2/f9nT1PK9uzE27nRiVcjEsPj0u8+HdR22v2+EaUSpuTIxmAEqHii/qX95Kzc1IyC65/QAcApi74zeFgDrTVPei6FZxVtLN/KzC+spn3V09ktYt+vsHgFVYunvHPAQkDpfp6R1+LbFwjyGVPmFwT4FssHu4QaoidJJKnIxM+AjKZPAJGPAxkMQABf5rUDBA3qFggLxDwQB5x2dmQGV59dppRijA1Ztj8kE7qRX4JPjMDGh91Xbm4IXLIfEg0ccuVZWPsUlLgf8oPjMDFPjsUDBA3qFggLxDwQB5h4IB8g4FA+QdCgbIOxQMkHcoGCDvUDBA3qFggLxDwQB5h4IB8g4FA+QdCgbIOxQMkG+8f///JmV1NJ9BT0oAAAAASUVORK5CYII=;" vertex="1" parent="1">
          <mxGeometry x="604.98" y="622" width="59.02" height="39" as="geometry" />
        </mxCell>
        <mxCell id="UZ6RkZTlEQQABrXdxuR9-44" value="&lt;b&gt;&lt;font style=&quot;font-size: 15px;&quot;&gt;Conversational Architectural AI Chatbot&lt;/font&gt;&lt;/b&gt;" style="text;strokeColor=none;align=center;fillColor=none;html=1;verticalAlign=middle;whiteSpace=wrap;rounded=0;" vertex="1" parent="1">
          <mxGeometry x="110" y="900" width="200" height="30" as="geometry" />
        </mxCell>
      </root>
    </mxGraphModel>
  </diagram>
</mxfile>
